<svg width="35" height="59" viewBox="0 0 35 59" fill="none" xmlns="http://www.w3.org/2000/svg">
<circle cx="17.5" cy="41.5" r="17" transform="rotate(90 17.5 41.5)" stroke="#F2C995"/>
<path d="M16.6464 48.3536C16.8417 48.5488 17.1583 48.5488 17.3536 48.3536L20.5355 45.1716C20.7308 44.9763 20.7308 44.6597 20.5355 44.4645C20.3403 44.2692 20.0237 44.2692 19.8284 44.4645L17 47.2929L14.1716 44.4645C13.9763 44.2692 13.6597 44.2692 13.4645 44.4645C13.2692 44.6597 13.2692 44.9763 13.4645 45.1716L16.6464 48.3536ZM16.5 -2.13654e-08L16.5 48L17.5 48L17.5 2.13654e-08L16.5 -2.13654e-08Z" fill="#F2C995"/>
</svg>
