<svg width="26" height="17" viewBox="0 0 26 17" fill="none" xmlns="http://www.w3.org/2000/svg">
<circle cx="18" cy="8.49951" r="7.5" stroke="url(#paint0_linear_414_2136)"/>
<path d="M1 7.99951C0.723858 7.99951 0.5 8.22337 0.5 8.49951C0.5 8.77565 0.723858 8.99951 1 8.99951L1 7.99951ZM20.3536 8.85307C20.5488 8.6578 20.5488 8.34122 20.3536 8.14596L17.1716 4.96398C16.9763 4.76872 16.6597 4.76872 16.4645 4.96398C16.2692 5.15924 16.2692 5.47582 16.4645 5.67108L19.2929 8.49951L16.4645 11.3279C16.2692 11.5232 16.2692 11.8398 16.4645 12.035C16.6597 12.2303 16.9763 12.2303 17.1716 12.035L20.3536 8.85307ZM1 8.99951L20 8.99951L20 7.99951L1 7.99951L1 8.99951Z" fill="url(#paint1_linear_414_2136)"/>
<defs>
<linearGradient id="paint0_linear_414_2136" x1="-2.01166e-07" y1="0.499512" x2="31" y2="16.4995" gradientUnits="userSpaceOnUse">
<stop stop-color="#F2C995"/>
<stop offset="0.296875" stop-color="#F2C995"/>
<stop offset="0.546875" stop-color="white"/>
<stop offset="0.734375" stop-color="#F2C995"/>
<stop offset="1" stop-color="#F2C995"/>
</linearGradient>
<linearGradient id="paint1_linear_414_2136" x1="26.0455" y1="15.9995" x2="-1.43972" y2="5.49288" gradientUnits="userSpaceOnUse">
<stop stop-color="#F2C995"/>
<stop offset="0.296875" stop-color="#F2C995"/>
<stop offset="0.546875" stop-color="white"/>
<stop offset="0.734375" stop-color="#F2C995"/>
<stop offset="1" stop-color="#F2C995"/>
</linearGradient>
</defs>
</svg>
