<svg width="30" height="30" viewBox="0 0 30 30" fill="none" xmlns="http://www.w3.org/2000/svg">
<circle cx="15" cy="15" r="14.25" stroke="url(#paint0_linear_730_2764)" stroke-width="1.5"/>
<path d="M14.7754 13.2695C15.7454 13.2695 16.5885 13.4355 17.3047 13.7676C18.0208 14.0931 18.5742 14.5684 18.9648 15.1934C19.362 15.8184 19.5605 16.5768 19.5605 17.4688C19.5605 18.4453 19.349 19.2884 18.9258 19.998C18.5026 20.7012 17.8939 21.2448 17.0996 21.6289C16.3053 22.0065 15.3548 22.1953 14.248 22.1953C13.5059 22.1953 12.8158 22.1302 12.1777 22C11.5397 21.8698 11.0026 21.6745 10.5664 21.4141V19.8711C11.0417 20.1576 11.6178 20.3854 12.2949 20.5547C12.972 20.724 13.6296 20.8086 14.2676 20.8086C14.9902 20.8086 15.6217 20.6947 16.1621 20.4668C16.709 20.2324 17.1322 19.8809 17.4316 19.4121C17.7376 18.9368 17.8906 18.3411 17.8906 17.625C17.8906 16.6745 17.5977 15.9421 17.0117 15.4277C16.4323 14.9069 15.5143 14.6465 14.2578 14.6465C13.8542 14.6465 13.4115 14.679 12.9297 14.7441C12.4479 14.8092 12.0508 14.8809 11.7383 14.959L10.918 14.4219L11.4648 7.72266H18.5645V9.20703H12.8516L12.4902 13.5137C12.7376 13.4616 13.0566 13.4095 13.4473 13.3574C13.8379 13.2988 14.2806 13.2695 14.7754 13.2695Z" fill="url(#paint1_linear_730_2764)"/>
<defs>
<linearGradient id="paint0_linear_730_2764" x1="15" y1="0" x2="15" y2="30" gradientUnits="userSpaceOnUse">
<stop stop-color="#F2C995" stop-opacity="0.8"/>
<stop offset="0.471875" stop-color="white" stop-opacity="0.8"/>
<stop offset="1" stop-color="#F2C995" stop-opacity="0.5"/>
</linearGradient>
<linearGradient id="paint1_linear_730_2764" x1="15" y1="1" x2="15" y2="28" gradientUnits="userSpaceOnUse">
<stop stop-color="#F2C995" stop-opacity="0.8"/>
<stop offset="0.471875" stop-color="white" stop-opacity="0.8"/>
<stop offset="1" stop-color="#F2C995" stop-opacity="0.5"/>
</linearGradient>
</defs>
</svg>
