<svg width="30" height="30" viewBox="0 0 30 30" fill="none" xmlns="http://www.w3.org/2000/svg">
<circle cx="15" cy="15" r="14.25" stroke="url(#paint0_linear_730_2799)" stroke-width="1.5"/>
<path d="M10.4102 15.8965C10.4102 15.0371 10.4688 14.1973 10.5859 13.377C10.7096 12.5566 10.9147 11.7949 11.2012 11.0918C11.4876 10.3822 11.8783 9.76042 12.373 9.22656C12.8678 8.69271 13.4831 8.27604 14.2188 7.97656C14.9609 7.67057 15.8496 7.51758 16.8848 7.51758C17.1777 7.51758 17.4935 7.53385 17.832 7.56641C18.1706 7.59245 18.4505 7.63802 18.6719 7.70312V9.09961C18.431 9.01497 18.1543 8.95312 17.8418 8.91406C17.5358 8.875 17.2266 8.85547 16.9141 8.85547C15.7031 8.85547 14.7493 9.11914 14.0527 9.64648C13.3626 10.1738 12.8646 10.89 12.5586 11.7949C12.2526 12.6934 12.0768 13.7057 12.0312 14.832H12.1387C12.3405 14.5065 12.5977 14.2135 12.9102 13.9531C13.2227 13.6862 13.6003 13.4746 14.043 13.3184C14.4922 13.1621 15.013 13.084 15.6055 13.084C16.4388 13.084 17.1647 13.2533 17.7832 13.5918C18.4082 13.9303 18.89 14.4219 19.2285 15.0664C19.5736 15.7109 19.7461 16.4922 19.7461 17.4102C19.7461 18.3932 19.5638 19.2428 19.1992 19.959C18.8346 20.6751 18.3138 21.2285 17.6367 21.6191C16.9661 22.0033 16.1654 22.1953 15.2344 22.1953C14.5378 22.1953 13.8965 22.0618 13.3105 21.7949C12.7246 21.528 12.2135 21.1309 11.7773 20.6035C11.3477 20.0762 11.0124 19.4219 10.7715 18.6406C10.5306 17.8529 10.4102 16.9382 10.4102 15.8965ZM15.2148 20.8281C16.1003 20.8281 16.8099 20.5449 17.3438 19.9785C17.8776 19.4121 18.1445 18.556 18.1445 17.4102C18.1445 16.4727 17.9069 15.7305 17.4316 15.1836C16.9564 14.6367 16.2402 14.3633 15.2832 14.3633C14.6322 14.3633 14.0658 14.5 13.584 14.7734C13.1022 15.0404 12.7279 15.3789 12.4609 15.7891C12.194 16.1992 12.0605 16.6159 12.0605 17.0391C12.0605 17.4688 12.1224 17.9049 12.2461 18.3477C12.3763 18.7904 12.5716 19.2005 12.832 19.5781C13.0924 19.9557 13.4212 20.2585 13.8184 20.4863C14.2155 20.7142 14.681 20.8281 15.2148 20.8281Z" fill="url(#paint1_linear_730_2799)"/>
<defs>
<linearGradient id="paint0_linear_730_2799" x1="15" y1="0" x2="15" y2="30" gradientUnits="userSpaceOnUse">
<stop stop-color="#F2C995" stop-opacity="0.8"/>
<stop offset="0.471875" stop-color="white" stop-opacity="0.8"/>
<stop offset="1" stop-color="#F2C995" stop-opacity="0.5"/>
</linearGradient>
<linearGradient id="paint1_linear_730_2799" x1="15" y1="1" x2="15" y2="28" gradientUnits="userSpaceOnUse">
<stop stop-color="#F2C995" stop-opacity="0.8"/>
<stop offset="0.471875" stop-color="white" stop-opacity="0.8"/>
<stop offset="1" stop-color="#F2C995" stop-opacity="0.5"/>
</linearGradient>
</defs>
</svg>
