<svg width="30" height="30" viewBox="0 0 30 30" fill="none" xmlns="http://www.w3.org/2000/svg">
<circle cx="15" cy="15" r="14.25" stroke="url(#paint0_linear_730_2755)" stroke-width="1.5"/>
<path d="M19.6191 22H10.2637V20.6426L14.082 16.7656C14.7917 16.0495 15.3874 15.4115 15.8691 14.8516C16.3574 14.2917 16.7285 13.7415 16.9824 13.2012C17.2363 12.6543 17.3633 12.0553 17.3633 11.4043C17.3633 10.597 17.1224 9.98177 16.6406 9.55859C16.1654 9.12891 15.5371 8.91406 14.7559 8.91406C14.0723 8.91406 13.4668 9.03125 12.9395 9.26562C12.4121 9.5 11.8717 9.83203 11.3184 10.2617L10.4492 9.16797C10.8268 8.84896 11.237 8.56576 11.6797 8.31836C12.1289 8.07096 12.6074 7.87565 13.1152 7.73242C13.6296 7.58919 14.1764 7.51758 14.7559 7.51758C15.6348 7.51758 16.3932 7.67057 17.0312 7.97656C17.6693 8.28255 18.1608 8.71875 18.5059 9.28516C18.8574 9.85156 19.0332 10.5254 19.0332 11.3066C19.0332 12.0618 18.8835 12.765 18.584 13.416C18.2845 14.0605 17.8646 14.7018 17.3242 15.3398C16.7839 15.9714 16.1523 16.6419 15.4297 17.3516L12.3242 20.4473V20.5156H19.6191V22Z" fill="url(#paint1_linear_730_2755)"/>
<defs>
<linearGradient id="paint0_linear_730_2755" x1="15" y1="0" x2="15" y2="30" gradientUnits="userSpaceOnUse">
<stop stop-color="#F2C995" stop-opacity="0.8"/>
<stop offset="0.471875" stop-color="white" stop-opacity="0.8"/>
<stop offset="1" stop-color="#F2C995" stop-opacity="0.5"/>
</linearGradient>
<linearGradient id="paint1_linear_730_2755" x1="15" y1="1" x2="15" y2="28" gradientUnits="userSpaceOnUse">
<stop stop-color="#F2C995" stop-opacity="0.8"/>
<stop offset="0.471875" stop-color="white" stop-opacity="0.8"/>
<stop offset="1" stop-color="#F2C995" stop-opacity="0.5"/>
</linearGradient>
</defs>
</svg>
