<svg width="30" height="30" viewBox="0 0 30 30" fill="none" xmlns="http://www.w3.org/2000/svg">
<circle cx="15" cy="15" r="14.25" stroke="url(#paint0_linear_730_2758)" stroke-width="1.5"/>
<path d="M19.0918 11.0527C19.0918 11.6908 18.9681 12.2441 18.7207 12.7129C18.4733 13.1816 18.1283 13.5658 17.6855 13.8652C17.2428 14.1582 16.722 14.3633 16.123 14.4805V14.5586C17.2559 14.7018 18.1055 15.0664 18.6719 15.6523C19.2448 16.2383 19.5312 17.0065 19.5312 17.957C19.5312 18.7839 19.3359 19.5163 18.9453 20.1543C18.5612 20.7923 17.9688 21.2936 17.168 21.6582C16.3737 22.0163 15.3548 22.1953 14.1113 22.1953C13.3561 22.1953 12.6562 22.1335 12.0117 22.0098C11.3737 21.8926 10.7617 21.694 10.1758 21.4141V19.8906C10.7682 20.1836 11.4128 20.4147 12.1094 20.584C12.806 20.7467 13.4798 20.8281 14.1309 20.8281C15.4329 20.8281 16.3737 20.571 16.9531 20.0566C17.5326 19.5358 17.8223 18.8262 17.8223 17.9277C17.8223 17.3092 17.6595 16.8112 17.334 16.4336C17.015 16.0495 16.5527 15.7695 15.9473 15.5938C15.3483 15.4115 14.6257 15.3203 13.7793 15.3203H12.3535V13.9336H13.7891C14.5638 13.9336 15.2214 13.8197 15.7617 13.5918C16.3021 13.3639 16.7122 13.0449 16.9922 12.6348C17.2786 12.2181 17.4219 11.7266 17.4219 11.1602C17.4219 10.4375 17.181 9.88086 16.6992 9.49023C16.2174 9.0931 15.5632 8.89453 14.7363 8.89453C14.2285 8.89453 13.7663 8.94661 13.3496 9.05078C12.9329 9.15495 12.5423 9.29818 12.1777 9.48047C11.8132 9.66276 11.4486 9.87435 11.084 10.1152L10.2637 9.00195C10.7845 8.59831 11.4193 8.25 12.168 7.95703C12.9167 7.66406 13.7663 7.51758 14.7168 7.51758C16.1751 7.51758 17.2689 7.84961 17.998 8.51367C18.7272 9.17773 19.0918 10.0241 19.0918 11.0527Z" fill="url(#paint1_linear_730_2758)"/>
<defs>
<linearGradient id="paint0_linear_730_2758" x1="15" y1="0" x2="15" y2="30" gradientUnits="userSpaceOnUse">
<stop stop-color="#F2C995" stop-opacity="0.8"/>
<stop offset="0.471875" stop-color="white" stop-opacity="0.8"/>
<stop offset="1" stop-color="#F2C995" stop-opacity="0.5"/>
</linearGradient>
<linearGradient id="paint1_linear_730_2758" x1="15" y1="1" x2="15" y2="28" gradientUnits="userSpaceOnUse">
<stop stop-color="#F2C995" stop-opacity="0.8"/>
<stop offset="0.471875" stop-color="white" stop-opacity="0.8"/>
<stop offset="1" stop-color="#F2C995" stop-opacity="0.5"/>
</linearGradient>
</defs>
</svg>
