<svg width="16" height="17" viewBox="0 0 16 17" fill="none" xmlns="http://www.w3.org/2000/svg">
<path d="M12.1658 9.26105C11.6418 10.3228 10.9325 11.3814 10.2058 12.3313C9.48132 13.2783 8.75442 14.0981 8.20768 14.6818C8.13503 14.7593 8.06566 14.8326 8 14.9014C7.93434 14.8326 7.86497 14.7593 7.79232 14.6818C7.24558 14.0981 6.51868 13.2783 5.79425 12.3313C5.06754 11.3814 4.35825 10.3228 3.83423 9.26105C3.3048 8.18836 3 7.1832 3 6.32129C3 3.55987 5.23858 1.32129 8 1.32129C10.7614 1.32129 13 3.55987 13 6.32129C13 7.1832 12.6952 8.18836 12.1658 9.26105ZM8 16.3213C8 16.3213 14 10.635 14 6.32129C14 3.00758 11.3137 0.321289 8 0.321289C4.68629 0.321289 2 3.00758 2 6.32129C2 10.635 8 16.3213 8 16.3213Z" fill="url(#paint0_linear_195_238)"/>
<path d="M8 8.32129C6.89543 8.32129 6 7.42586 6 6.32129C6 5.21672 6.89543 4.32129 8 4.32129C9.10457 4.32129 10 5.21672 10 6.32129C10 7.42586 9.10457 8.32129 8 8.32129ZM8 9.32129C9.65685 9.32129 11 7.97814 11 6.32129C11 4.66443 9.65685 3.32129 8 3.32129C6.34315 3.32129 5 4.66443 5 6.32129C5 7.97814 6.34315 9.32129 8 9.32129Z" fill="url(#paint1_linear_195_238)"/>
<defs>
<linearGradient id="paint0_linear_195_238" x1="8" y1="0.321289" x2="8" y2="16.3213" gradientUnits="userSpaceOnUse">
<stop stop-color="#F2C995"/>
<stop offset="0.296875" stop-color="#F2C995"/>
<stop offset="0.546875" stop-color="white"/>
<stop offset="0.734375" stop-color="#F2C995"/>
<stop offset="1" stop-color="#F2C995"/>
</linearGradient>
<linearGradient id="paint1_linear_195_238" x1="8" y1="0.321289" x2="8" y2="16.3213" gradientUnits="userSpaceOnUse">
<stop stop-color="#F2C995"/>
<stop offset="0.296875" stop-color="#F2C995"/>
<stop offset="0.546875" stop-color="white"/>
<stop offset="0.734375" stop-color="#F2C995"/>
<stop offset="1" stop-color="#F2C995"/>
</linearGradient>
</defs>
</svg>
