<svg width="20" height="21" viewBox="0 0 20 21" fill="none" xmlns="http://www.w3.org/2000/svg">
<path d="M10.0009 0.321289C7.28508 0.321289 6.94424 0.333164 5.87756 0.381707C4.81297 0.430457 4.08629 0.599 3.45045 0.846295C2.79274 1.10171 2.23481 1.44338 1.67898 1.99943C1.12272 2.55527 0.78105 3.11319 0.524797 3.7707C0.276878 4.40675 0.108126 5.13363 0.0602089 6.19781C0.0125 7.26449 0 7.60553 0 10.3214C0 13.0373 0.0120837 13.377 0.0604175 14.4437C0.109376 15.5083 0.27792 16.235 0.525006 16.8708C0.780633 17.5285 1.1223 18.0865 1.67835 18.6423C2.23398 19.1986 2.7919 19.5411 3.4492 19.7965C4.08546 20.0438 4.81234 20.2123 5.87673 20.2611C6.94341 20.3096 7.28403 20.3215 9.99969 20.3215C12.7158 20.3215 13.0556 20.3096 14.1222 20.2611C15.1868 20.2123 15.9143 20.0438 16.5506 19.7965C17.2081 19.5411 17.7652 19.1986 18.3208 18.6423C18.8771 18.0865 19.2187 17.5285 19.475 16.871C19.7208 16.235 19.8896 15.5081 19.9396 14.4439C19.9875 13.3773 20 13.0373 20 10.3214C20 7.60553 19.9875 7.26469 19.9396 6.19802C19.8896 5.13342 19.7208 4.40675 19.475 3.77091C19.2187 3.11319 18.8771 2.55527 18.3208 1.99943C17.7646 1.44318 17.2083 1.10151 16.55 0.846295C15.9125 0.599 15.1854 0.430457 14.1208 0.381707C13.0541 0.333164 12.7145 0.321289 9.99781 0.321289H10.0009ZM9.10385 2.12339C9.3701 2.12297 9.66718 2.12339 10.0009 2.12339C12.671 2.12339 12.9874 2.13297 14.0418 2.18089C15.0168 2.22548 15.546 2.38839 15.8985 2.52527C16.3652 2.70652 16.6979 2.92319 17.0477 3.27319C17.3977 3.6232 17.6143 3.95653 17.796 4.42321C17.9329 4.77529 18.096 5.30447 18.1404 6.27948C18.1883 7.33365 18.1987 7.65032 18.1987 10.3191C18.1987 12.9879 18.1883 13.3045 18.1404 14.3587C18.0958 15.3337 17.9329 15.8629 17.796 16.215C17.6148 16.6817 17.3977 17.014 17.0477 17.3638C16.6977 17.7138 16.3654 17.9304 15.8985 18.1117C15.5464 18.2492 15.0168 18.4117 14.0418 18.4563C12.9876 18.5042 12.671 18.5146 10.0009 18.5146C7.3307 18.5146 7.01424 18.5042 5.96006 18.4563C4.98505 18.4113 4.45588 18.2483 4.10317 18.1115C3.6365 17.9302 3.30316 17.7136 2.95316 17.3635C2.60315 17.0135 2.38648 16.681 2.20481 16.2142C2.06794 15.8621 1.90481 15.3329 1.86044 14.3579C1.81252 13.3037 1.80294 12.987 1.80294 10.3166C1.80294 7.64616 1.81252 7.33115 1.86044 6.27698C1.90502 5.30197 2.06794 4.77279 2.20481 4.42029C2.38607 3.95362 2.60315 3.62028 2.95316 3.27028C3.30316 2.92027 3.6365 2.70361 4.10317 2.52194C4.45567 2.38444 4.98505 2.22193 5.96006 2.17714C6.88257 2.13547 7.24008 2.12297 9.10385 2.12089V2.12339ZM15.3389 3.78382C14.6764 3.78382 14.1389 4.3207 14.1389 4.98342C14.1389 5.64593 14.6764 6.18343 15.3389 6.18343C16.0014 6.18343 16.5389 5.64593 16.5389 4.98342C16.5389 4.32091 16.0014 3.78341 15.3389 3.78341V3.78382ZM10.0009 5.18592C7.16487 5.18592 4.86547 7.48532 4.86547 10.3214C4.86547 13.1575 7.16487 15.4558 10.0009 15.4558C12.837 15.4558 15.1356 13.1575 15.1356 10.3214C15.1356 7.48532 12.8368 5.18592 10.0007 5.18592H10.0009ZM10.0009 6.98802C11.8418 6.98802 13.3343 8.48033 13.3343 10.3214C13.3343 12.1622 11.8418 13.6548 10.0009 13.6548C8.15988 13.6548 6.66757 12.1622 6.66757 10.3214C6.66757 8.48033 8.15988 6.98802 10.0009 6.98802Z" fill="#F2C995"/>
</svg>
