<svg width="130" height="84" viewBox="0 0 130 84" fill="none" xmlns="http://www.w3.org/2000/svg">
<path d="M126.717 66.3643C126.088 66.2391 119.925 63.6394 116.821 58.3661C113.717 53.0936 112.659 47.6041 110.427 46.3925C108.194 45.1822 107.36 42.1711 106.138 40.0672C104.914 37.9637 103.308 38.7384 103.09 39.7636C102.872 40.7893 101.242 40.5902 100.128 38.2906C99.0114 35.9897 95.6718 28.1917 85.519 28.8872C68.4283 30.0578 67.1102 32.3994 67.0141 32.8579C66.9144 33.3176 67.6833 33.4044 67.476 33.9099C67.2714 34.4155 66.3813 33.4907 65.367 33.662C61.357 34.3381 52.0455 44.3775 51.4763 45.0482C50.9062 45.7205 49.7086 45.1878 52.5921 42.7288C55.4737 40.2704 51.3149 39.4921 53.3204 35.615C55.3253 31.7356 60.1862 27.069 63.1502 26.5313C66.1157 25.9948 64.7908 23.6019 62.936 24.6139C61.0831 25.6239 60.41 24.631 61.2858 22.211C62.1614 19.7923 58.5472 20.759 56.9331 21.5711C55.3827 22.3519 55.4684 20.1493 56.7857 20.266C58.1037 20.3822 61.447 19.7566 61.0665 18.4666C60.6868 17.1762 64.0736 17.1209 67.2498 13.2831C70.4253 9.44719 73.564 5.93751 75.3051 4.37468C77.0472 2.81365 77.3742 0.661878 79.4177 0.148605C81.4604 -0.367955 82.5438 0.843556 80.7494 1.42404C78.956 2.00258 74.6366 5.05922 70.7295 9.86212C66.8243 14.6652 66.8286 18.801 69.4916 17.2162C72.1551 15.6334 79.0746 10.6772 78.893 8.91672C78.7106 7.15585 82.4115 5.31895 86.4196 4.34288C90.4285 3.3676 90.1514 4.97254 91.1007 5.59058C92.0509 6.20859 94.4546 5.07805 95.5414 5.35893C96.6274 5.6403 96.0159 7.12152 95.4403 6.60044C94.8634 6.07903 93.494 5.27708 91.1898 7.32583C88.8863 9.37574 87.3615 9.76673 87.0341 9.45631C86.7062 9.14863 87.9528 7.90584 86.3885 7.87362C84.8229 7.8413 79.3575 9.96855 74.08 14.9018C72.4059 16.464 72.1392 18.013 73.3438 17.28C75.0599 16.2388 80.6667 12.4311 83.1492 11.5441C85.6317 10.659 85.5689 12.9526 86.8533 12.7633C88.1389 12.5737 93.0232 11.4894 98.5897 12.8904C104.156 14.2925 105.267 17.3744 107.824 19.377C110.379 21.3785 111.937 19.1369 113.846 18.1781C115.754 17.2175 115.796 19.017 116.859 19.1048C117.921 19.1933 118.299 20.0363 116.883 20.3782C115.468 20.7195 113.56 19.5189 112.617 22.2561C111.674 24.9926 117.168 28.276 119.037 28.7216C120.909 29.1673 119.729 30.0933 120.524 33.1293C121.318 36.1664 125.082 36.955 124.98 39.1268C124.923 40.3555 126.452 42.3762 128.157 43.5992C129.861 44.8225 129.219 46.1454 128.434 45.8321C127.65 45.516 128.226 44.6584 127.325 44.4269C126.424 44.195 126.933 43.8031 124.131 40.6582C121.327 37.5109 119.101 38.2757 118.632 39.0864C118.165 39.8978 116.177 38.0052 114.393 37.7663C112.608 37.5295 113.906 40.51 116.648 42.5604C119.389 44.6107 118.797 45.3884 119.449 46.6381C120.1 47.8859 122.47 48.7609 122.389 50.5287C122.307 52.2954 120.256 50.2367 119.439 53.3049C118.621 56.3723 120.616 57.9307 120.503 58.6096C120.392 59.2884 120.025 59.0086 119.593 59.1948C119.161 59.3805 119.489 61.067 122.105 62.9371C124.721 64.8048 126.242 64.8992 127.119 65.2375C127.998 65.5771 127.345 66.4897 126.717 66.3643ZM67.4945 23.5189C66.3722 23.7136 65.3351 23.8194 65.3179 24.82C65.3017 25.822 66.8143 26.1004 68.0238 25.035C69.2352 23.9705 68.618 23.3256 67.4945 23.5189ZM101.392 20.5088C102.106 19.6143 98.5147 17.8648 98.0354 19.1943C97.5563 20.5237 100.677 21.4046 101.392 20.5088ZM102.845 15.2209C100.185 13.5655 95.6514 12.5427 95.4919 14.2151C95.3326 15.8866 95.7722 16.4675 97.3811 17.4985C98.6495 18.3104 100.209 18.3781 101.469 19.3746C102.588 20.2573 104.856 21.6298 105.485 20.5238C106.112 19.4209 105.507 16.8789 102.845 15.2209Z" fill="url(#paint0_linear_185_234)"/>
<path d="M5.85162 11.9802C6.46043 12.1819 12.2564 15.5212 14.6871 21.1367C17.1171 26.7513 17.4914 32.3295 19.5569 33.8068C21.6232 35.2829 22.0803 38.3739 23.0338 40.6122C23.989 42.8505 25.6789 42.2797 26.0211 41.2891C26.3642 40.2981 27.9568 40.6964 28.7796 43.1159C29.6038 45.5367 31.9572 53.6867 42.1183 54.2474C59.223 55.1913 60.8196 53.03 60.9715 52.5867C61.1271 52.1428 60.3747 51.9619 60.6427 51.4858C60.908 51.0093 61.6774 52.0367 62.7051 51.9917C66.7678 51.8148 77.2453 42.9991 77.8928 42.4036C78.5414 41.8066 79.6642 42.4828 76.4997 44.5679C73.3372 46.6525 77.3684 47.9373 74.9005 51.5378C72.433 55.1405 67.0341 59.1727 64.0265 59.3412C61.0175 59.5083 62.0375 62.0461 64.0028 61.2703C65.9661 60.4963 66.5117 61.5646 65.3445 63.8583C64.1775 66.1506 67.8832 65.6366 69.5851 65.0295C71.2199 64.4457 70.8635 66.621 69.5706 66.3429C68.277 66.0652 64.8821 66.2742 65.1007 67.6011C65.3186 68.9285 61.9508 68.5661 58.326 71.9834C54.702 75.3989 51.1549 78.4951 49.2345 79.8315C47.3133 81.166 46.7238 83.2611 44.6326 83.5187C42.5418 83.7797 41.6159 82.4439 43.4681 82.0889C45.3192 81.7358 49.9822 79.2346 54.4513 74.9496C58.9184 70.6643 59.4238 66.5594 56.5858 67.8041C53.7476 69.0466 46.2702 73.1126 46.2335 74.8821C46.1976 76.652 42.2986 78.0189 38.2007 78.4938C34.1023 78.9677 34.575 77.4091 33.7091 76.6789C32.8422 75.9485 30.3176 76.7743 29.2736 76.3616C28.2306 75.9486 29.0199 74.554 29.5269 75.1421C30.0352 75.7306 31.2953 76.6951 33.8344 74.9459C36.3729 73.1954 37.9343 72.9952 38.2209 73.3436C38.5084 73.6893 37.1182 74.7691 38.6666 74.9938C40.2162 75.2187 45.9022 73.781 51.7472 69.5356C53.601 68.1915 54.0565 66.6871 52.7708 67.2661C50.9395 68.088 44.9063 71.176 42.3334 71.7503C39.7608 72.3228 40.1057 70.0544 38.8078 70.084C37.5086 70.1138 32.5279 70.5881 27.1764 68.512C21.8253 66.4348 21.102 63.2394 18.812 60.9372C16.5227 58.6361 14.7 60.6687 12.6879 61.385C10.6761 62.1032 10.8556 60.3122 9.81164 60.0941C8.76854 59.8755 8.49789 58.9924 9.9446 58.8274C11.3917 58.6632 13.1366 60.0896 14.4099 57.4895C15.6825 54.89 10.6355 50.9548 8.83502 50.2823C7.03231 49.6093 8.31731 48.8358 7.90278 45.725C7.4884 42.6131 3.85028 41.3668 4.21933 39.2242C4.42718 38.0118 3.15951 35.8182 1.61739 34.3944C0.0769434 32.9705 0.877411 31.7368 1.61757 32.1443C2.35736 32.5548 1.67967 33.3348 2.54578 33.6756C3.41081 34.0167 2.85754 34.3429 5.25088 37.8091C7.64577 41.2778 9.94934 40.7931 10.514 40.0463C11.0775 39.2986 12.8177 41.4218 14.5586 41.8787C16.3001 42.3335 15.3793 39.2158 12.9115 36.8433C10.4434 34.4708 11.1269 33.772 10.6333 32.4515C10.1413 31.133 7.8977 29.9727 8.19559 28.2284C8.49462 26.4852 10.2765 28.7809 11.4654 25.8368C12.6546 22.8935 10.867 21.1012 11.0624 20.4414C11.2561 19.7814 11.5857 20.1042 12.0377 19.9727C12.4897 19.8417 12.3722 18.1276 10.0059 15.9494C7.63968 13.7737 6.14238 13.4926 5.31344 13.0488C4.48331 12.6036 5.24396 11.7784 5.85162 11.9802ZM59.3441 61.7954C60.4819 61.7404 61.5242 61.7632 61.6645 60.7724C61.804 59.78 60.3372 59.3174 59.0056 60.2256C57.6724 61.1328 58.2054 61.8488 59.3441 61.7954ZM25.3339 60.6063C24.5149 61.406 27.8637 63.5847 28.5031 62.3244C29.1423 61.0642 26.1537 59.8054 25.3339 60.6063ZM23.2411 65.6751C25.6768 67.6455 30.0495 69.219 30.4138 67.579C30.7779 65.9399 30.4132 65.3093 28.9435 64.0879C27.7849 63.1259 26.2458 62.8667 25.1177 61.7224C24.1158 60.7086 22.0344 59.0672 21.2741 60.0873C20.5157 61.1044 20.8035 63.7017 23.2411 65.6751Z" fill="url(#paint1_linear_185_234)"/>
<g filter="url(#filter0_d_185_234)">
<mask id="path-3-outside-1_185_234" maskUnits="userSpaceOnUse" x="13" y="31" width="105" height="21" fill="black">
<rect fill="white" x="13" y="31" width="105" height="21"/>
<path d="M14 50.096V49.496H22.304C23.056 49.496 23.696 49.384 24.224 49.16C24.768 48.92 25.184 48.48 25.472 47.84C25.76 47.2 25.904 46.28 25.904 45.08C25.904 43.992 25.768 43.152 25.496 42.56C25.224 41.952 24.776 41.528 24.152 41.288C23.528 41.048 22.672 40.928 21.584 40.928L20.864 40.208C22.528 40.208 24.016 40.392 25.328 40.76C26.64 41.112 27.672 41.656 28.424 42.392C29.192 43.128 29.576 44.064 29.576 45.2C29.576 46.16 29.296 47.008 28.736 47.744C28.192 48.48 27.44 49.056 26.48 49.472C25.536 49.888 24.464 50.096 23.264 50.096H14ZM16.64 49.736V32H19.856V49.736H16.64ZM19.112 40.928V40.208H22.304C23.04 40.208 23.632 40.112 24.08 39.92C24.544 39.712 24.88 39.344 25.088 38.816C25.312 38.272 25.424 37.488 25.424 36.464C25.424 35.376 25.312 34.56 25.088 34.016C24.864 33.456 24.52 33.08 24.056 32.888C23.592 32.696 23.008 32.6 22.304 32.6H14V32H23.264C24.32 32 25.272 32.192 26.12 32.576C26.968 32.944 27.64 33.456 28.136 34.112C28.648 34.768 28.904 35.52 28.904 36.368C28.904 37.264 28.608 38.056 28.016 38.744C27.424 39.432 26.632 39.968 25.64 40.352C24.648 40.736 23.536 40.928 22.304 40.928H19.112Z"/>
<path d="M34.931 50.384C34.067 50.384 33.363 50.136 32.819 49.64C32.275 49.144 32.003 48.496 32.003 47.696C32.003 46.928 32.259 46.272 32.771 45.728C33.299 45.184 34.043 44.768 35.003 44.48C35.963 44.176 37.099 44.024 38.411 44.024V41.096C38.411 40.68 38.251 40.352 37.931 40.112C37.611 39.872 37.171 39.752 36.611 39.752C36.131 39.752 35.739 39.832 35.435 39.992C35.131 40.152 34.979 40.36 34.979 40.616C34.979 40.776 35.035 40.92 35.147 41.048C35.259 41.176 35.315 41.376 35.315 41.648C35.315 41.984 35.187 42.264 34.931 42.488C34.691 42.696 34.379 42.8 33.995 42.8C33.611 42.8 33.307 42.688 33.083 42.464C32.859 42.224 32.747 41.928 32.747 41.576C32.747 41.096 32.939 40.664 33.323 40.28C33.707 39.88 34.227 39.568 34.883 39.344C35.539 39.12 36.275 39.008 37.091 39.008C38.259 39.008 39.211 39.24 39.947 39.704C40.683 40.152 41.051 40.744 41.051 41.48V48.776C41.051 48.936 41.099 49.072 41.195 49.184C41.307 49.28 41.435 49.328 41.579 49.328C41.723 49.328 41.891 49.256 42.083 49.112C42.275 48.952 42.515 48.712 42.803 48.392L43.139 48.776C42.387 49.848 41.547 50.384 40.619 50.384C40.059 50.384 39.595 50.232 39.227 49.928C38.875 49.608 38.635 49.168 38.507 48.608H38.411C38.107 49.12 37.627 49.544 36.971 49.88C36.315 50.216 35.635 50.384 34.931 50.384ZM36.371 49.064C36.979 49.064 37.467 48.84 37.835 48.392C38.219 47.928 38.411 47.328 38.411 46.592V44.648C37.211 44.648 36.307 44.872 35.699 45.32C35.091 45.752 34.787 46.392 34.787 47.24C34.787 47.816 34.923 48.264 35.195 48.584C35.483 48.904 35.875 49.064 36.371 49.064Z"/>
<path d="M44.3356 49.736L44.2636 49.256L50.6956 39.536H52.9516L53.2876 40.136L47.0236 49.736H44.3356ZM44.2636 50.096V49.256L44.4556 49.496H49.5916C50.4876 49.496 51.2476 49.208 51.8716 48.632C52.4956 48.056 52.8316 47.192 52.8796 46.04L52.9036 45.656H53.5036V50.096H44.2636ZM44.7916 43.496V39.296H53.2876V40.136L53.0956 39.896H48.7036C48.0156 39.896 47.4236 40.064 46.9276 40.4C46.4476 40.72 46.0716 41.152 45.7996 41.696C45.5436 42.24 45.4076 42.84 45.3916 43.496H44.7916Z"/>
<path d="M64.1949 49.736V41.624C64.1949 41.016 64.0589 40.568 63.7869 40.28C63.5309 39.976 63.1629 39.824 62.6829 39.824C62.1389 39.824 61.6349 40.04 61.1709 40.472C60.7229 40.904 60.3629 41.496 60.0909 42.248C59.8349 42.984 59.7069 43.824 59.7069 44.768L59.2269 41.288H59.8029C60.1549 40.632 60.6269 40.088 61.2189 39.656C61.8109 39.224 62.5789 39.008 63.5229 39.008C64.4989 39.008 65.2909 39.264 65.8989 39.776C66.5229 40.272 66.8349 40.888 66.8349 41.624V49.736H64.1949ZM55.1709 50.096V49.496H61.2669V50.096H55.1709ZM62.3709 50.096V49.496H68.4669V50.096H62.3709ZM57.0669 49.736V32.384H59.7069V49.736H57.0669ZM55.1709 32.6V32H59.7069V32.6H55.1709Z"/>
<path d="M71.7238 49.736V39.896H74.3638V49.736H71.7238ZM69.8278 50.096V49.496H76.2837V50.096H69.8278ZM69.5877 40.112V39.512H74.3638V40.112H69.5877ZM72.9958 35.744C72.5638 35.744 72.1877 35.592 71.8677 35.288C71.5637 34.968 71.4118 34.592 71.4118 34.16C71.4118 33.728 71.5637 33.36 71.8677 33.056C72.1877 32.736 72.5638 32.576 72.9958 32.576C73.4277 32.576 73.7957 32.736 74.0998 33.056C74.4198 33.36 74.5798 33.728 74.5798 34.16C74.5798 34.592 74.4198 34.968 74.0998 35.288C73.7957 35.592 73.4277 35.744 72.9958 35.744Z"/>
<path d="M86.4616 49.736V41.624C86.4616 40.424 85.9816 39.824 85.0216 39.824C84.4936 39.824 84.0056 40.04 83.5576 40.472C83.1256 40.904 82.7736 41.496 82.5016 42.248C82.2456 42.984 82.1176 43.824 82.1176 44.768L81.6376 41.288H82.2136C82.5496 40.632 83.0056 40.088 83.5816 39.656C84.1736 39.224 84.9336 39.008 85.8616 39.008C86.8056 39.008 87.5816 39.264 88.1896 39.776C88.7976 40.272 89.1016 40.888 89.1016 41.624V49.736H86.4616ZM77.5816 50.096V49.496H83.6776V50.096H77.5816ZM79.4776 49.736V39.68H82.1176V49.736H79.4776ZM84.6376 50.096V49.496H90.7336V50.096H84.6376ZM77.5816 39.896V39.296H82.1176V39.896H77.5816Z"/>
<path d="M100.47 49.736L96.1985 44.12L98.4065 42.752L103.903 49.736H100.47ZM91.4945 50.096V49.496H97.3505V50.096H91.4945ZM98.8385 50.096V49.496H104.743V50.096H98.8385ZM93.3905 49.736V32.384H96.0305V49.736H93.3905ZM97.2305 44.12H96.1985L100.59 39.704H101.622L97.2305 44.12ZM91.4945 32.6V32H96.0305V32.6H91.4945ZM98.0465 39.896V39.296H103.615V39.896H98.0465Z"/>
<path d="M108.431 50.384C107.567 50.384 106.863 50.136 106.319 49.64C105.775 49.144 105.503 48.496 105.503 47.696C105.503 46.928 105.759 46.272 106.271 45.728C106.799 45.184 107.543 44.768 108.503 44.48C109.463 44.176 110.599 44.024 111.911 44.024V41.096C111.911 40.68 111.751 40.352 111.431 40.112C111.111 39.872 110.671 39.752 110.111 39.752C109.631 39.752 109.239 39.832 108.935 39.992C108.631 40.152 108.479 40.36 108.479 40.616C108.479 40.776 108.535 40.92 108.647 41.048C108.759 41.176 108.815 41.376 108.815 41.648C108.815 41.984 108.687 42.264 108.431 42.488C108.191 42.696 107.879 42.8 107.495 42.8C107.111 42.8 106.807 42.688 106.583 42.464C106.359 42.224 106.247 41.928 106.247 41.576C106.247 41.096 106.439 40.664 106.823 40.28C107.207 39.88 107.727 39.568 108.383 39.344C109.039 39.12 109.775 39.008 110.591 39.008C111.759 39.008 112.711 39.24 113.447 39.704C114.183 40.152 114.551 40.744 114.551 41.48V48.776C114.551 48.936 114.599 49.072 114.695 49.184C114.807 49.28 114.935 49.328 115.079 49.328C115.223 49.328 115.391 49.256 115.583 49.112C115.775 48.952 116.015 48.712 116.303 48.392L116.639 48.776C115.887 49.848 115.047 50.384 114.119 50.384C113.559 50.384 113.095 50.232 112.727 49.928C112.375 49.608 112.135 49.168 112.007 48.608H111.911C111.607 49.12 111.127 49.544 110.471 49.88C109.815 50.216 109.135 50.384 108.431 50.384ZM109.871 49.064C110.479 49.064 110.967 48.84 111.335 48.392C111.719 47.928 111.911 47.328 111.911 46.592V44.648C110.711 44.648 109.807 44.872 109.199 45.32C108.591 45.752 108.287 46.392 108.287 47.24C108.287 47.816 108.423 48.264 108.695 48.584C108.983 48.904 109.375 49.064 109.871 49.064Z"/>
</mask>
<path d="M14 50.096V49.496H22.304C23.056 49.496 23.696 49.384 24.224 49.16C24.768 48.92 25.184 48.48 25.472 47.84C25.76 47.2 25.904 46.28 25.904 45.08C25.904 43.992 25.768 43.152 25.496 42.56C25.224 41.952 24.776 41.528 24.152 41.288C23.528 41.048 22.672 40.928 21.584 40.928L20.864 40.208C22.528 40.208 24.016 40.392 25.328 40.76C26.64 41.112 27.672 41.656 28.424 42.392C29.192 43.128 29.576 44.064 29.576 45.2C29.576 46.16 29.296 47.008 28.736 47.744C28.192 48.48 27.44 49.056 26.48 49.472C25.536 49.888 24.464 50.096 23.264 50.096H14ZM16.64 49.736V32H19.856V49.736H16.64ZM19.112 40.928V40.208H22.304C23.04 40.208 23.632 40.112 24.08 39.92C24.544 39.712 24.88 39.344 25.088 38.816C25.312 38.272 25.424 37.488 25.424 36.464C25.424 35.376 25.312 34.56 25.088 34.016C24.864 33.456 24.52 33.08 24.056 32.888C23.592 32.696 23.008 32.6 22.304 32.6H14V32H23.264C24.32 32 25.272 32.192 26.12 32.576C26.968 32.944 27.64 33.456 28.136 34.112C28.648 34.768 28.904 35.52 28.904 36.368C28.904 37.264 28.608 38.056 28.016 38.744C27.424 39.432 26.632 39.968 25.64 40.352C24.648 40.736 23.536 40.928 22.304 40.928H19.112Z" fill="#EAD3FF"/>
<path d="M34.931 50.384C34.067 50.384 33.363 50.136 32.819 49.64C32.275 49.144 32.003 48.496 32.003 47.696C32.003 46.928 32.259 46.272 32.771 45.728C33.299 45.184 34.043 44.768 35.003 44.48C35.963 44.176 37.099 44.024 38.411 44.024V41.096C38.411 40.68 38.251 40.352 37.931 40.112C37.611 39.872 37.171 39.752 36.611 39.752C36.131 39.752 35.739 39.832 35.435 39.992C35.131 40.152 34.979 40.36 34.979 40.616C34.979 40.776 35.035 40.92 35.147 41.048C35.259 41.176 35.315 41.376 35.315 41.648C35.315 41.984 35.187 42.264 34.931 42.488C34.691 42.696 34.379 42.8 33.995 42.8C33.611 42.8 33.307 42.688 33.083 42.464C32.859 42.224 32.747 41.928 32.747 41.576C32.747 41.096 32.939 40.664 33.323 40.28C33.707 39.88 34.227 39.568 34.883 39.344C35.539 39.12 36.275 39.008 37.091 39.008C38.259 39.008 39.211 39.24 39.947 39.704C40.683 40.152 41.051 40.744 41.051 41.48V48.776C41.051 48.936 41.099 49.072 41.195 49.184C41.307 49.28 41.435 49.328 41.579 49.328C41.723 49.328 41.891 49.256 42.083 49.112C42.275 48.952 42.515 48.712 42.803 48.392L43.139 48.776C42.387 49.848 41.547 50.384 40.619 50.384C40.059 50.384 39.595 50.232 39.227 49.928C38.875 49.608 38.635 49.168 38.507 48.608H38.411C38.107 49.12 37.627 49.544 36.971 49.88C36.315 50.216 35.635 50.384 34.931 50.384ZM36.371 49.064C36.979 49.064 37.467 48.84 37.835 48.392C38.219 47.928 38.411 47.328 38.411 46.592V44.648C37.211 44.648 36.307 44.872 35.699 45.32C35.091 45.752 34.787 46.392 34.787 47.24C34.787 47.816 34.923 48.264 35.195 48.584C35.483 48.904 35.875 49.064 36.371 49.064Z" fill="#EAD3FF"/>
<path d="M44.3356 49.736L44.2636 49.256L50.6956 39.536H52.9516L53.2876 40.136L47.0236 49.736H44.3356ZM44.2636 50.096V49.256L44.4556 49.496H49.5916C50.4876 49.496 51.2476 49.208 51.8716 48.632C52.4956 48.056 52.8316 47.192 52.8796 46.04L52.9036 45.656H53.5036V50.096H44.2636ZM44.7916 43.496V39.296H53.2876V40.136L53.0956 39.896H48.7036C48.0156 39.896 47.4236 40.064 46.9276 40.4C46.4476 40.72 46.0716 41.152 45.7996 41.696C45.5436 42.24 45.4076 42.84 45.3916 43.496H44.7916Z" fill="#EAD3FF"/>
<path d="M64.1949 49.736V41.624C64.1949 41.016 64.0589 40.568 63.7869 40.28C63.5309 39.976 63.1629 39.824 62.6829 39.824C62.1389 39.824 61.6349 40.04 61.1709 40.472C60.7229 40.904 60.3629 41.496 60.0909 42.248C59.8349 42.984 59.7069 43.824 59.7069 44.768L59.2269 41.288H59.8029C60.1549 40.632 60.6269 40.088 61.2189 39.656C61.8109 39.224 62.5789 39.008 63.5229 39.008C64.4989 39.008 65.2909 39.264 65.8989 39.776C66.5229 40.272 66.8349 40.888 66.8349 41.624V49.736H64.1949ZM55.1709 50.096V49.496H61.2669V50.096H55.1709ZM62.3709 50.096V49.496H68.4669V50.096H62.3709ZM57.0669 49.736V32.384H59.7069V49.736H57.0669ZM55.1709 32.6V32H59.7069V32.6H55.1709Z" fill="#EAD3FF"/>
<path d="M71.7238 49.736V39.896H74.3638V49.736H71.7238ZM69.8278 50.096V49.496H76.2837V50.096H69.8278ZM69.5877 40.112V39.512H74.3638V40.112H69.5877ZM72.9958 35.744C72.5638 35.744 72.1877 35.592 71.8677 35.288C71.5637 34.968 71.4118 34.592 71.4118 34.16C71.4118 33.728 71.5637 33.36 71.8677 33.056C72.1877 32.736 72.5638 32.576 72.9958 32.576C73.4277 32.576 73.7957 32.736 74.0998 33.056C74.4198 33.36 74.5798 33.728 74.5798 34.16C74.5798 34.592 74.4198 34.968 74.0998 35.288C73.7957 35.592 73.4277 35.744 72.9958 35.744Z" fill="#EAD3FF"/>
<path d="M86.4616 49.736V41.624C86.4616 40.424 85.9816 39.824 85.0216 39.824C84.4936 39.824 84.0056 40.04 83.5576 40.472C83.1256 40.904 82.7736 41.496 82.5016 42.248C82.2456 42.984 82.1176 43.824 82.1176 44.768L81.6376 41.288H82.2136C82.5496 40.632 83.0056 40.088 83.5816 39.656C84.1736 39.224 84.9336 39.008 85.8616 39.008C86.8056 39.008 87.5816 39.264 88.1896 39.776C88.7976 40.272 89.1016 40.888 89.1016 41.624V49.736H86.4616ZM77.5816 50.096V49.496H83.6776V50.096H77.5816ZM79.4776 49.736V39.68H82.1176V49.736H79.4776ZM84.6376 50.096V49.496H90.7336V50.096H84.6376ZM77.5816 39.896V39.296H82.1176V39.896H77.5816Z" fill="#EAD3FF"/>
<path d="M100.47 49.736L96.1985 44.12L98.4065 42.752L103.903 49.736H100.47ZM91.4945 50.096V49.496H97.3505V50.096H91.4945ZM98.8385 50.096V49.496H104.743V50.096H98.8385ZM93.3905 49.736V32.384H96.0305V49.736H93.3905ZM97.2305 44.12H96.1985L100.59 39.704H101.622L97.2305 44.12ZM91.4945 32.6V32H96.0305V32.6H91.4945ZM98.0465 39.896V39.296H103.615V39.896H98.0465Z" fill="#EAD3FF"/>
<path d="M108.431 50.384C107.567 50.384 106.863 50.136 106.319 49.64C105.775 49.144 105.503 48.496 105.503 47.696C105.503 46.928 105.759 46.272 106.271 45.728C106.799 45.184 107.543 44.768 108.503 44.48C109.463 44.176 110.599 44.024 111.911 44.024V41.096C111.911 40.68 111.751 40.352 111.431 40.112C111.111 39.872 110.671 39.752 110.111 39.752C109.631 39.752 109.239 39.832 108.935 39.992C108.631 40.152 108.479 40.36 108.479 40.616C108.479 40.776 108.535 40.92 108.647 41.048C108.759 41.176 108.815 41.376 108.815 41.648C108.815 41.984 108.687 42.264 108.431 42.488C108.191 42.696 107.879 42.8 107.495 42.8C107.111 42.8 106.807 42.688 106.583 42.464C106.359 42.224 106.247 41.928 106.247 41.576C106.247 41.096 106.439 40.664 106.823 40.28C107.207 39.88 107.727 39.568 108.383 39.344C109.039 39.12 109.775 39.008 110.591 39.008C111.759 39.008 112.711 39.24 113.447 39.704C114.183 40.152 114.551 40.744 114.551 41.48V48.776C114.551 48.936 114.599 49.072 114.695 49.184C114.807 49.28 114.935 49.328 115.079 49.328C115.223 49.328 115.391 49.256 115.583 49.112C115.775 48.952 116.015 48.712 116.303 48.392L116.639 48.776C115.887 49.848 115.047 50.384 114.119 50.384C113.559 50.384 113.095 50.232 112.727 49.928C112.375 49.608 112.135 49.168 112.007 48.608H111.911C111.607 49.12 111.127 49.544 110.471 49.88C109.815 50.216 109.135 50.384 108.431 50.384ZM109.871 49.064C110.479 49.064 110.967 48.84 111.335 48.392C111.719 47.928 111.911 47.328 111.911 46.592V44.648C110.711 44.648 109.807 44.872 109.199 45.32C108.591 45.752 108.287 46.392 108.287 47.24C108.287 47.816 108.423 48.264 108.695 48.584C108.983 48.904 109.375 49.064 109.871 49.064Z" fill="#EAD3FF"/>
<path d="M14 50.096H13V51.096H14V50.096ZM14 49.496V48.496H13V49.496H14ZM24.224 49.16L24.6145 50.0806L24.6211 50.0778L24.6276 50.0749L24.224 49.16ZM25.472 47.84L26.3839 48.2504L25.472 47.84ZM25.496 42.56L24.5831 42.9684L24.5873 42.9775L25.496 42.56ZM24.152 41.288L23.793 42.2213H23.793L24.152 41.288ZM21.584 40.928L20.8769 41.6351L21.1698 41.928H21.584V40.928ZM20.864 40.208V39.208H18.4498L20.1569 40.9151L20.864 40.208ZM25.328 40.76L25.0579 41.7229L25.0689 41.7258L25.328 40.76ZM28.424 42.392L27.7245 43.1067L27.7321 43.114L28.424 42.392ZM28.736 47.744L27.9401 47.1384L27.9318 47.1496L28.736 47.744ZM26.48 49.472L26.0824 48.5544L26.0767 48.5569L26.48 49.472ZM16.64 49.736H15.64V50.736H16.64V49.736ZM16.64 32V31H15.64V32H16.64ZM19.856 32H20.856V31H19.856V32ZM19.856 49.736V50.736H20.856V49.736H19.856ZM19.112 40.928H18.112V41.928H19.112V40.928ZM19.112 40.208V39.208H18.112V40.208H19.112ZM24.08 39.92L24.4739 40.8391L24.4815 40.8359L24.4891 40.8325L24.08 39.92ZM25.088 38.816L24.1633 38.4352L24.1604 38.4423L24.1576 38.4495L25.088 38.816ZM25.088 34.016L24.1595 34.3874L24.1633 34.3967L25.088 34.016ZM24.056 32.888L23.6736 33.812L23.6736 33.812L24.056 32.888ZM14 32.6H13V33.6H14V32.6ZM14 32V31H13V32H14ZM26.12 32.576L25.7075 33.487L25.7147 33.4902L25.7219 33.4933L26.12 32.576ZM28.136 34.112L27.3383 34.7151L27.343 34.7212L27.3477 34.7273L28.136 34.112ZM25.64 40.352L26.001 41.2846L25.64 40.352ZM32.819 49.64L33.4928 48.901L32.819 49.64ZM32.771 45.728L32.0534 45.0315L32.0481 45.037L32.0428 45.0426L32.771 45.728ZM35.003 44.48L35.2903 45.4378L35.2976 45.4356L35.3049 45.4333L35.003 44.48ZM38.411 44.024V45.024H39.411V44.024H38.411ZM37.931 40.112L37.331 40.912H37.331L37.931 40.112ZM35.435 39.992L34.9693 39.1071L34.9693 39.1071L35.435 39.992ZM35.147 41.048L34.3944 41.7065V41.7065L35.147 41.048ZM34.931 42.488L35.5859 43.2437L35.5895 43.2406L34.931 42.488ZM33.083 42.464L32.3519 43.1463L32.3637 43.1589L32.3759 43.1711L33.083 42.464ZM33.323 40.28L34.0301 40.9871L34.0373 40.9799L34.0444 40.9725L33.323 40.28ZM34.883 39.344L35.2061 40.2903L34.883 39.344ZM39.947 39.704L39.4137 40.5499L39.4203 40.5541L39.4271 40.5582L39.947 39.704ZM41.195 49.184L40.4357 49.8348L40.4858 49.8932L40.5442 49.9433L41.195 49.184ZM42.083 49.112L42.683 49.912L42.7035 49.8966L42.7232 49.8802L42.083 49.112ZM42.803 48.392L43.5556 47.7335L42.8135 46.8854L42.0597 47.723L42.803 48.392ZM43.139 48.776L43.9577 49.3503L44.4082 48.708L43.8916 48.1175L43.139 48.776ZM39.227 49.928L38.5543 50.6679L38.5719 50.6839L38.5901 50.699L39.227 49.928ZM38.507 48.608L39.4819 48.3852L39.3042 47.608H38.507V48.608ZM38.411 48.608V47.608H37.8418L37.5511 48.0975L38.411 48.608ZM37.835 48.392L37.0646 47.7544L37.0623 47.7573L37.835 48.392ZM38.411 44.648H39.411V43.648H38.411V44.648ZM35.699 45.32L36.2782 46.1352L36.2852 46.1302L36.2922 46.1251L35.699 45.32ZM35.195 48.584L34.4331 49.2316L34.4422 49.2424L34.4517 49.253L35.195 48.584ZM44.3356 49.736L43.3467 49.8843L43.4744 50.736H44.3356V49.736ZM44.2636 49.256L43.4297 48.7042L43.2636 48.9551V49.256H44.2636ZM50.6956 39.536V38.536H50.1582L49.8617 38.9842L50.6956 39.536ZM52.9516 39.536L53.8241 39.0474L53.5378 38.536H52.9516V39.536ZM53.2876 40.136L54.1251 40.6825L54.2876 40.4334V40.136H53.2876ZM47.0236 49.736V50.736H47.5652L47.8611 50.2825L47.0236 49.736ZM44.2636 50.096H43.2636V51.096H44.2636V50.096ZM44.4556 49.496L43.6748 50.1207L43.975 50.496H44.4556V49.496ZM51.8716 48.632L51.1933 47.8972L51.8716 48.632ZM52.8796 46.04L51.8816 45.9776L51.8809 45.988L51.8805 45.9984L52.8796 46.04ZM52.9036 45.656V44.656H51.9642L51.9056 45.5936L52.9036 45.656ZM53.5036 45.656H54.5036V44.656H53.5036V45.656ZM53.5036 50.096V51.096H54.5036V50.096H53.5036ZM44.7916 43.496H43.7916V44.496H44.7916V43.496ZM44.7916 39.296V38.296H43.7916V39.296H44.7916ZM53.2876 39.296H54.2876V38.296H53.2876V39.296ZM53.0956 39.896L53.8765 39.2713L53.5763 38.896H53.0956V39.896ZM46.9276 40.4L47.4823 41.2321L47.4885 41.2279L46.9276 40.4ZM45.7996 41.696L44.9052 41.2488L44.8999 41.2594L44.8948 41.2702L45.7996 41.696ZM45.3916 43.496V44.496H46.3675L46.3913 43.5204L45.3916 43.496ZM64.1949 49.736H63.1949V50.736H64.1949V49.736ZM63.7869 40.28L63.022 40.9241L63.0403 40.9459L63.0599 40.9666L63.7869 40.28ZM61.1709 40.472L60.4895 39.7401L60.483 39.7461L60.4767 39.7522L61.1709 40.472ZM60.0909 42.248L59.1504 41.9078L59.1464 41.9195L60.0909 42.248ZM59.7069 44.768L58.7163 44.9046L60.7069 44.768H59.7069ZM59.2269 41.288V40.288H58.0795L58.2363 41.4246L59.2269 41.288ZM59.8029 41.288V42.288H60.4012L60.684 41.7608L59.8029 41.288ZM61.2189 39.656L60.6294 38.8482V38.8482L61.2189 39.656ZM65.8989 39.776L65.2547 40.5409L65.2656 40.55L65.2766 40.5588L65.8989 39.776ZM66.8349 49.736V50.736H67.8349V49.736H66.8349ZM55.1709 50.096H54.1709V51.096H55.1709V50.096ZM55.1709 49.496V48.496H54.1709V49.496H55.1709ZM61.2669 49.496H62.2669V48.496H61.2669V49.496ZM61.2669 50.096V51.096H62.2669V50.096H61.2669ZM62.3709 50.096H61.3709V51.096H62.3709V50.096ZM62.3709 49.496V48.496H61.3709V49.496H62.3709ZM68.4669 49.496H69.4669V48.496H68.4669V49.496ZM68.4669 50.096V51.096H69.4669V50.096H68.4669ZM57.0669 49.736H56.0669V50.736H57.0669V49.736ZM57.0669 32.384V31.384H56.0669V32.384H57.0669ZM59.7069 32.384H60.7069V31.384H59.7069V32.384ZM59.7069 49.736V50.736H60.7069V49.736H59.7069ZM55.1709 32.6H54.1709V33.6H55.1709V32.6ZM55.1709 32V31H54.1709V32H55.1709ZM59.7069 32H60.7069V31H59.7069V32ZM59.7069 32.6V33.6H60.7069V32.6H59.7069ZM71.7238 49.736H70.7238V50.736H71.7238V49.736ZM71.7238 39.896V38.896H70.7238V39.896H71.7238ZM74.3638 39.896H75.3638V38.896H74.3638V39.896ZM74.3638 49.736V50.736H75.3638V49.736H74.3638ZM69.8278 50.096H68.8278V51.096H69.8278V50.096ZM69.8278 49.496V48.496H68.8278V49.496H69.8278ZM76.2837 49.496H77.2837V48.496H76.2837V49.496ZM76.2837 50.096V51.096H77.2837V50.096H76.2837ZM69.5877 40.112H68.5877V41.112H69.5877V40.112ZM69.5877 39.512V38.512H68.5877V39.512H69.5877ZM74.3638 39.512H75.3638V38.512H74.3638V39.512ZM74.3638 40.112V41.112H75.3638V40.112H74.3638ZM71.8677 35.288L71.1427 35.9767L71.1604 35.9953L71.179 36.013L71.8677 35.288ZM71.8677 33.056L71.1606 32.3489V32.3489L71.8677 33.056ZM74.0998 33.056L73.3748 33.7447L73.3924 33.7633L73.411 33.781L74.0998 33.056ZM74.0998 35.288L74.8069 35.9951L74.0998 35.288ZM86.4616 49.736H85.4616V50.736H86.4616V49.736ZM83.5576 40.472L82.8635 39.7522L82.8569 39.7585L82.8505 39.7649L83.5576 40.472ZM82.5016 42.248L81.5612 41.9078L81.5571 41.9195L82.5016 42.248ZM82.1176 44.768L81.127 44.9046L83.1176 44.768H82.1176ZM81.6376 41.288V40.288H80.4902L80.647 41.4246L81.6376 41.288ZM82.2136 41.288V42.288H82.825L83.1037 41.7439L82.2136 41.288ZM83.5816 39.656L82.9921 38.8481L82.9816 38.856L83.5816 39.656ZM88.1896 39.776L87.5455 40.5409L87.5515 40.5459L87.5575 40.5509L88.1896 39.776ZM89.1016 49.736V50.736H90.1016V49.736H89.1016ZM77.5816 50.096H76.5816V51.096H77.5816V50.096ZM77.5816 49.496V48.496H76.5816V49.496H77.5816ZM83.6776 49.496H84.6776V48.496H83.6776V49.496ZM83.6776 50.096V51.096H84.6776V50.096H83.6776ZM79.4776 49.736H78.4776V50.736H79.4776V49.736ZM79.4776 39.68V38.68H78.4776V39.68H79.4776ZM82.1176 39.68H83.1176V38.68H82.1176V39.68ZM82.1176 49.736V50.736H83.1176V49.736H82.1176ZM84.6376 50.096H83.6376V51.096H84.6376V50.096ZM84.6376 49.496V48.496H83.6376V49.496H84.6376ZM90.7336 49.496H91.7336V48.496H90.7336V49.496ZM90.7336 50.096V51.096H91.7336V50.096H90.7336ZM77.5816 39.896H76.5816V40.896H77.5816V39.896ZM77.5816 39.296V38.296H76.5816V39.296H77.5816ZM82.1176 39.296H83.1176V38.296H82.1176V39.296ZM82.1176 39.896V40.896H83.1176V39.896H82.1176ZM100.47 49.736L99.6746 50.3414L99.9747 50.736H100.47V49.736ZM96.1985 44.12L95.4895 43.4148L94.8754 44.0323L95.4026 44.7254L96.1985 44.12ZM98.4065 42.752L99.1924 42.1336L98.6396 41.4312L97.8798 41.9019L98.4065 42.752ZM103.903 49.736V50.736H105.962L104.688 49.1176L103.903 49.736ZM91.4945 50.096H90.4945V51.096H91.4945V50.096ZM91.4945 49.496V48.496H90.4945V49.496H91.4945ZM97.3505 49.496H98.3505V48.496H97.3505V49.496ZM97.3505 50.096V51.096H98.3505V50.096H97.3505ZM98.8385 50.096H97.8385V51.096H98.8385V50.096ZM98.8385 49.496V48.496H97.8385V49.496H98.8385ZM104.743 49.496H105.743V48.496H104.743V49.496ZM104.743 50.096V51.096H105.743V50.096H104.743ZM93.3905 49.736H92.3905V50.736H93.3905V49.736ZM93.3905 32.384V31.384H92.3905V32.384H93.3905ZM96.0305 32.384H97.0305V31.384H96.0305V32.384ZM96.0305 49.736V50.736H97.0305V49.736H96.0305ZM97.2305 44.12V45.12H97.6463L97.9395 44.8252L97.2305 44.12ZM100.59 39.704V38.704H100.175L99.8815 38.9988L100.59 39.704ZM101.622 39.704L102.332 40.4092L104.027 38.704H101.622V39.704ZM91.4945 32.6H90.4945V33.6H91.4945V32.6ZM91.4945 32V31H90.4945V32H91.4945ZM96.0305 32H97.0305V31H96.0305V32ZM96.0305 32.6V33.6H97.0305V32.6H96.0305ZM98.0465 39.896H97.0465V40.896H98.0465V39.896ZM98.0465 39.296V38.296H97.0465V39.296H98.0465ZM103.615 39.296H104.615V38.296H103.615V39.296ZM103.615 39.896V40.896H104.615V39.896H103.615ZM106.319 49.64L106.993 48.901L106.319 49.64ZM106.271 45.728L105.553 45.0315L105.548 45.037L105.543 45.0426L106.271 45.728ZM108.503 44.48L108.79 45.4378L108.798 45.4356L108.805 45.4333L108.503 44.48ZM111.911 44.024V45.024H112.911V44.024H111.911ZM111.431 40.112L110.831 40.912L111.431 40.112ZM108.935 39.992L108.469 39.1071V39.1071L108.935 39.992ZM108.647 41.048L107.894 41.7065V41.7065L108.647 41.048ZM108.431 42.488L109.086 43.2437L109.09 43.2406L108.431 42.488ZM106.583 42.464L105.852 43.1463L105.864 43.1589L105.876 43.1711L106.583 42.464ZM106.823 40.28L107.53 40.9871L107.537 40.9799L107.544 40.9725L106.823 40.28ZM108.383 39.344L108.706 40.2903L108.383 39.344ZM113.447 39.704L112.914 40.5499L112.92 40.5541L112.927 40.5582L113.447 39.704ZM114.695 49.184L113.936 49.8348L113.986 49.8932L114.044 49.9433L114.695 49.184ZM115.583 49.112L116.183 49.912L116.203 49.8966L116.223 49.8802L115.583 49.112ZM116.303 48.392L117.056 47.7335L116.314 46.8854L115.56 47.723L116.303 48.392ZM116.639 48.776L117.458 49.3503L117.908 48.708L117.392 48.1175L116.639 48.776ZM112.727 49.928L112.054 50.6679L112.072 50.6839L112.09 50.699L112.727 49.928ZM112.007 48.608L112.982 48.3852L112.804 47.608H112.007V48.608ZM111.911 48.608V47.608H111.342L111.051 48.0975L111.911 48.608ZM111.335 48.392L110.565 47.7544L110.562 47.7573L111.335 48.392ZM111.911 44.648H112.911V43.648H111.911V44.648ZM109.199 45.32L109.778 46.1352L109.785 46.1302L109.792 46.1251L109.199 45.32ZM108.695 48.584L107.933 49.2316L107.942 49.2424L107.952 49.253L108.695 48.584ZM15 50.096V49.496H13V50.096H15ZM14 50.496H22.304V48.496H14V50.496ZM22.304 50.496C23.1505 50.496 23.931 50.3706 24.6145 50.0806L23.8335 48.2394C23.461 48.3974 22.9615 48.496 22.304 48.496V50.496ZM24.6276 50.0749C25.4373 49.7177 26.0139 49.0725 26.3839 48.2504L24.5601 47.4296C24.3541 47.8875 24.0987 48.1223 23.8204 48.2451L24.6276 50.0749ZM26.3839 48.2504C26.7573 47.4207 26.904 46.3349 26.904 45.08H24.904C24.904 46.2251 24.7627 46.9793 24.5601 47.4296L26.3839 48.2504ZM26.904 45.08C26.904 43.9321 26.7642 42.9249 26.4047 42.1425L24.5873 42.9775C24.7718 43.3791 24.904 44.0519 24.904 45.08H26.904ZM26.4088 42.1516C26.0284 41.3013 25.3807 40.6892 24.511 40.3547L23.793 42.2213C24.1713 42.3668 24.4196 42.6027 24.5832 42.9684L26.4088 42.1516ZM24.511 40.3547C23.7231 40.0516 22.7275 39.928 21.584 39.928V41.928C22.6165 41.928 23.3329 42.0444 23.793 42.2213L24.511 40.3547ZM22.2911 40.2209L21.5711 39.5009L20.1569 40.9151L20.8769 41.6351L22.2911 40.2209ZM20.864 41.208C22.4561 41.208 23.8507 41.3842 25.0579 41.7228L25.5981 39.7972C24.1813 39.3998 22.5999 39.208 20.864 39.208V41.208ZM25.0689 41.7258C26.262 42.046 27.126 42.5209 27.7245 43.1067L29.1235 41.6773C28.218 40.7911 27.018 40.178 25.5871 39.7942L25.0689 41.7258ZM27.7321 43.114C28.2889 43.6475 28.576 44.3159 28.576 45.2H30.576C30.576 43.8121 30.0951 42.6085 29.1159 41.67L27.7321 43.114ZM28.576 45.2C28.576 45.9502 28.3624 46.5835 27.9402 47.1385L29.5318 48.3495C30.2296 47.4325 30.576 46.3698 30.576 45.2H28.576ZM27.9318 47.1496C27.5068 47.7247 26.9043 48.1983 26.0824 48.5544L26.8776 50.3896C27.9757 49.9137 28.8772 49.2353 29.5402 48.3384L27.9318 47.1496ZM26.0767 48.5569C25.2789 48.9085 24.3476 49.096 23.264 49.096V51.096C24.5804 51.096 25.7931 50.8675 26.8833 50.3871L26.0767 48.5569ZM23.264 49.096H14V51.096H23.264V49.096ZM17.64 49.736V32H15.64V49.736H17.64ZM16.64 33H19.856V31H16.64V33ZM18.856 32V49.736H20.856V32H18.856ZM19.856 48.736H16.64V50.736H19.856V48.736ZM20.112 40.928V40.208H18.112V40.928H20.112ZM19.112 41.208H22.304V39.208H19.112V41.208ZM22.304 41.208C23.1129 41.208 23.8546 41.1046 24.4739 40.8391L23.6861 39.0009C23.4094 39.1194 22.9671 39.208 22.304 39.208V41.208ZM24.4891 40.8325C25.2201 40.5048 25.7268 39.9229 26.0184 39.1825L24.1576 38.4495C24.0332 38.7651 23.8679 38.9192 23.6709 39.0075L24.4891 40.8325ZM26.0127 39.1967C26.3103 38.4739 26.424 37.5363 26.424 36.464H24.424C24.424 37.4397 24.3137 38.0701 24.1633 38.4352L26.0127 39.1967ZM26.424 36.464C26.424 35.3373 26.3123 34.363 26.0127 33.6352L24.1633 34.3967C24.3117 34.757 24.424 35.4147 24.424 36.464H26.424ZM26.0165 33.6446C25.714 32.8884 25.2006 32.2794 24.4384 31.964L23.6736 33.812C23.8395 33.8806 24.014 34.0236 24.1595 34.3874L26.0165 33.6446ZM24.4384 31.964C23.8149 31.706 23.0902 31.6 22.304 31.6V33.6C22.9258 33.6 23.3691 33.686 23.6736 33.812L24.4384 31.964ZM22.304 31.6H14V33.6H22.304V31.6ZM15 32.6V32H13V32.6H15ZM14 33H23.264V31H14V33ZM23.264 33C24.1969 33 25.0055 33.169 25.7075 33.487L26.5325 31.665C25.5385 31.215 24.4431 31 23.264 31V33ZM25.7219 33.4933C26.4318 33.8014 26.9586 34.2129 27.3383 34.7151L28.9337 33.5089C28.3214 32.6991 27.5042 32.0866 26.5181 31.6587L25.7219 33.4933ZM27.3477 34.7273C27.7197 35.2039 27.904 35.7384 27.904 36.368H29.904C29.904 35.3016 29.5763 34.3321 28.9243 33.4967L27.3477 34.7273ZM27.904 36.368C27.904 37.0212 27.6961 37.5826 27.258 38.0918L28.774 39.3962C29.5199 38.5294 29.904 37.5068 29.904 36.368H27.904ZM27.258 38.0918C26.7903 38.6352 26.1441 39.0846 25.279 39.4194L26.001 41.2846C27.1199 40.8514 28.0577 40.2288 28.774 39.3962L27.258 38.0918ZM25.279 39.4194C24.4188 39.7524 23.4318 39.928 22.304 39.928V41.928C23.6402 41.928 24.8772 41.7196 26.001 41.2846L25.279 39.4194ZM22.304 39.928H19.112V41.928H22.304V39.928ZM34.931 49.384C34.2703 49.384 33.8212 49.2005 33.4928 48.901L32.1452 50.379C32.9048 51.0715 33.8637 51.384 34.931 51.384V49.384ZM33.4928 48.901C33.1759 48.6122 33.003 48.2421 33.003 47.696H31.003C31.003 48.75 31.3741 49.6758 32.1452 50.379L33.4928 48.901ZM33.003 47.696C33.003 47.1748 33.1671 46.7662 33.4992 46.4134L32.0428 45.0426C31.3509 45.7778 31.003 46.6812 31.003 47.696H33.003ZM33.4886 46.4245C33.8656 46.036 34.4428 45.6921 35.2903 45.4378L34.7157 43.5222C33.6432 43.8439 32.7324 44.332 32.0534 45.0315L33.4886 46.4245ZM35.3049 45.4333C36.1428 45.168 37.1722 45.024 38.411 45.024V43.024C37.0258 43.024 35.7832 43.184 34.7011 43.5267L35.3049 45.4333ZM39.411 44.024V41.096H37.411V44.024H39.411ZM39.411 41.096C39.411 40.38 39.1144 39.7495 38.531 39.312L37.331 40.912C37.3766 40.9462 37.3882 40.9682 37.3922 40.9764C37.3969 40.9859 37.411 41.0186 37.411 41.096H39.411ZM38.531 39.312C37.9807 38.8993 37.3029 38.752 36.611 38.752V40.752C37.0391 40.752 37.2413 40.8447 37.331 40.912L38.531 39.312ZM36.611 38.752C36.0296 38.752 35.4625 38.8475 34.9693 39.1071L35.9007 40.8769C36.0155 40.8165 36.2324 40.752 36.611 40.752V38.752ZM34.9693 39.1071C34.4665 39.3717 33.979 39.8619 33.979 40.616H35.979C35.979 40.6526 35.9733 40.697 35.9578 40.7443C35.9423 40.7915 35.9209 40.8299 35.9004 40.858C35.8617 40.911 35.8407 40.9085 35.9007 40.8769L34.9693 39.1071ZM33.979 40.616C33.979 41.0343 34.1338 41.4087 34.3944 41.7065L35.8996 40.3895C35.9124 40.4042 35.9348 40.4348 35.953 40.4816C35.9715 40.5292 35.979 40.5765 35.979 40.616H33.979ZM34.3944 41.7065C34.3329 41.6361 34.3135 41.5762 34.31 41.5636C34.3072 41.5536 34.315 41.5767 34.315 41.648H36.315C36.315 41.2708 36.2427 40.7816 35.8996 40.3895L34.3944 41.7065ZM34.315 41.648C34.315 41.6683 34.3131 41.6803 34.3119 41.6861C34.3108 41.6915 34.3098 41.6937 34.3095 41.6942C34.3092 41.6948 34.3079 41.6977 34.3036 41.7035C34.299 41.7094 34.2897 41.7203 34.2725 41.7354L35.5895 43.2406C36.0594 42.8294 36.315 42.2764 36.315 41.648H34.315ZM34.2761 41.7323C34.254 41.7514 34.191 41.8 33.995 41.8V43.8C34.567 43.8 35.128 43.6406 35.5859 43.2437L34.2761 41.7323ZM33.995 41.8C33.8996 41.8 33.8476 41.7861 33.8247 41.7777C33.8053 41.7705 33.7974 41.7642 33.7901 41.7569L32.3759 43.1711C32.826 43.6212 33.4058 43.8 33.995 43.8V41.8ZM33.8141 41.7817C33.7761 41.741 33.747 41.6947 33.747 41.576H31.747C31.747 42.1613 31.9419 42.707 32.3519 43.1463L33.8141 41.7817ZM33.747 41.576C33.747 41.3969 33.8068 41.2104 34.0301 40.9871L32.6159 39.5729C32.0712 40.1176 31.747 40.7951 31.747 41.576H33.747ZM34.0444 40.9725C34.2936 40.713 34.6642 40.4754 35.2061 40.2903L34.5599 38.3976C33.7898 38.6606 33.1204 39.047 32.6016 39.5875L34.0444 40.9725ZM35.2061 40.2903C35.7415 40.1075 36.3659 40.008 37.091 40.008V38.008C36.1841 38.008 35.3365 38.1325 34.5599 38.3977L35.2061 40.2903ZM37.091 40.008C38.1331 40.008 38.8833 40.2155 39.4137 40.5499L40.4803 38.8581C39.5387 38.2645 38.3849 38.008 37.091 38.008V40.008ZM39.4271 40.5582C39.9249 40.8612 40.051 41.1579 40.051 41.48H42.051C42.051 40.3301 41.4411 39.4428 40.4669 38.8498L39.4271 40.5582ZM40.051 41.48V48.776H42.051V41.48H40.051ZM40.051 48.776C40.051 49.1529 40.1708 49.5257 40.4357 49.8348L41.9543 48.5332C41.9847 48.5688 42.012 48.6141 42.03 48.6652C42.0476 48.7151 42.051 48.755 42.051 48.776H40.051ZM40.5442 49.9433C40.8326 50.1905 41.19 50.328 41.579 50.328V48.328C41.6204 48.328 41.6719 48.3354 41.7261 48.3557C41.78 48.3759 41.8201 48.4027 41.8458 48.4247L40.5442 49.9433ZM41.579 50.328C42.0415 50.328 42.4229 50.107 42.683 49.912L41.483 48.312C41.4321 48.3502 41.4112 48.3582 41.4191 48.3549C41.4273 48.3513 41.4844 48.328 41.579 48.328V50.328ZM42.7232 49.8802C42.9688 49.6755 43.2456 49.395 43.5463 49.061L42.0597 47.723C41.7844 48.029 41.5812 48.2285 41.4428 48.3438L42.7232 49.8802ZM42.0504 49.0505L42.3864 49.4345L43.8916 48.1175L43.5556 47.7335L42.0504 49.0505ZM42.3203 48.2017C41.6728 49.1248 41.0996 49.384 40.619 49.384V51.384C41.9944 51.384 43.1012 50.5712 43.9577 49.3503L42.3203 48.2017ZM40.619 49.384C40.2493 49.384 40.0226 49.2882 39.8639 49.157L38.5901 50.699C39.1674 51.1758 39.8687 51.384 40.619 51.384V49.384ZM39.8997 49.1881C39.7279 49.0319 39.5739 48.788 39.4819 48.3852L37.5321 48.8308C37.6961 49.548 38.0221 50.1841 38.5543 50.6679L39.8997 49.1881ZM38.507 47.608H38.411V49.608H38.507V47.608ZM37.5511 48.0975C37.3639 48.4128 37.0432 48.7195 36.5151 48.99L37.4269 50.77C38.2108 50.3685 38.8501 49.8272 39.2709 49.1185L37.5511 48.0975ZM36.5151 48.99C35.9934 49.2572 35.469 49.384 34.931 49.384V51.384C35.801 51.384 36.6366 51.1748 37.4269 50.77L36.5151 48.99ZM36.371 50.064C37.2615 50.064 38.0394 49.7186 38.6077 49.0267L37.0623 47.7573C36.8946 47.9614 36.6965 48.064 36.371 48.064V50.064ZM38.6054 49.0296C39.1687 48.3489 39.411 47.5073 39.411 46.592H37.411C37.411 47.1487 37.2693 47.5071 37.0646 47.7544L38.6054 49.0296ZM39.411 46.592V44.648H37.411V46.592H39.411ZM38.411 43.648C37.114 43.648 35.9603 43.8853 35.1058 44.5149L36.2922 46.1251C36.6537 45.8587 37.308 45.648 38.411 45.648V43.648ZM35.1198 44.5048C34.2087 45.1522 33.787 46.1194 33.787 47.24H35.787C35.787 46.6646 35.9733 46.3518 36.2782 46.1352L35.1198 44.5048ZM33.787 47.24C33.787 47.9652 33.9586 48.6735 34.4331 49.2316L35.9569 47.9364C35.8874 47.8545 35.787 47.6668 35.787 47.24H33.787ZM34.4517 49.253C34.959 49.8166 35.6391 50.064 36.371 50.064V48.064C36.1109 48.064 36.007 47.9914 35.9383 47.915L34.4517 49.253ZM45.3246 49.5877L45.2526 49.1077L43.2747 49.4043L43.3467 49.8843L45.3246 49.5877ZM45.0976 49.8078L51.5296 40.0878L49.8617 38.9842L43.4297 48.7042L45.0976 49.8078ZM50.6956 40.536H52.9516V38.536H50.6956V40.536ZM52.0791 40.0246L52.4151 40.6246L54.1601 39.6474L53.8241 39.0474L52.0791 40.0246ZM52.4501 39.5895L46.1861 49.1895L47.8611 50.2825L54.1251 40.6825L52.4501 39.5895ZM47.0236 48.736H44.3356V50.736H47.0236V48.736ZM45.2636 50.096V49.256H43.2636V50.096H45.2636ZM43.4828 49.8807L43.6748 50.1207L45.2365 48.8713L45.0445 48.6313L43.4828 49.8807ZM44.4556 50.496H49.5916V48.496H44.4556V50.496ZM49.5916 50.496C50.7238 50.496 51.7303 50.1234 52.5499 49.3668L51.1933 47.8972C50.7649 48.2926 50.2514 48.496 49.5916 48.496V50.496ZM52.5499 49.3668C53.4297 48.5547 53.8238 47.401 53.8788 46.0816L51.8805 45.9984C51.8395 46.983 51.5616 47.5573 51.1933 47.8972L52.5499 49.3668ZM53.8777 46.1024L53.9017 45.7184L51.9056 45.5936L51.8816 45.9776L53.8777 46.1024ZM52.9036 46.656H53.5036V44.656H52.9036V46.656ZM52.5036 45.656V50.096H54.5036V45.656H52.5036ZM53.5036 49.096H44.2636V51.096H53.5036V49.096ZM45.7916 43.496V39.296H43.7916V43.496H45.7916ZM44.7916 40.296H53.2876V38.296H44.7916V40.296ZM52.2876 39.296V40.136H54.2876V39.296H52.2876ZM54.0685 39.5113L53.8765 39.2713L52.3148 40.5207L52.5068 40.7607L54.0685 39.5113ZM53.0956 38.896H48.7036V40.896H53.0956V38.896ZM48.7036 38.896C47.8462 38.896 47.0519 39.1079 46.3668 39.5721L47.4885 41.2279C47.7953 41.0201 48.185 40.896 48.7036 40.896V38.896ZM46.3729 39.5679C45.7402 39.9898 45.2506 40.5579 44.9052 41.2488L46.6941 42.1432C46.8926 41.7461 47.1551 41.4502 47.4823 41.232L46.3729 39.5679ZM44.8948 41.2702C44.5744 41.9511 44.411 42.6895 44.3919 43.4716L46.3913 43.5204C46.4043 42.9905 46.5129 42.5289 46.7044 42.1218L44.8948 41.2702ZM45.3916 42.496H44.7916V44.496H45.3916V42.496ZM65.1949 49.736V41.624H63.1949V49.736H65.1949ZM65.1949 41.624C65.1949 40.8932 65.0349 40.145 64.5139 39.5934L63.0599 40.9666C63.0829 40.991 63.1949 41.1388 63.1949 41.624H65.1949ZM64.5518 39.6359C64.0663 39.0593 63.3905 38.824 62.6829 38.824V40.824C62.9352 40.824 62.9955 40.8927 63.022 40.9241L64.5518 39.6359ZM62.6829 38.824C61.8446 38.824 61.1058 39.1662 60.4895 39.7401L61.8523 41.2039C62.1639 40.9138 62.4331 40.824 62.6829 40.824V38.824ZM60.4767 39.7522C59.892 40.316 59.4602 41.0517 59.1505 41.9079L61.0312 42.5881C61.2656 41.9403 61.5538 41.492 61.865 41.1918L60.4767 39.7522ZM59.1464 41.9195C58.8468 42.7808 58.7069 43.735 58.7069 44.768H60.7069C60.7069 43.913 60.8229 43.1872 61.0354 42.5765L59.1464 41.9195ZM60.6975 44.6314L60.2175 41.1514L58.2363 41.4246L58.7163 44.9046L60.6975 44.6314ZM59.2269 42.288H59.8029V40.288H59.2269V42.288ZM60.684 41.7608C60.9663 41.2348 61.3394 40.806 61.8083 40.4638L60.6294 38.8482C59.9143 39.37 59.3434 40.0292 58.9217 40.8152L60.684 41.7608ZM61.8083 40.4638C62.1856 40.1885 62.7296 40.008 63.5229 40.008V38.008C62.4281 38.008 61.4361 38.2595 60.6294 38.8482L61.8083 40.4638ZM63.5229 40.008C64.3188 40.008 64.8655 40.2131 65.2547 40.5409L66.543 39.0111C65.7163 38.3149 64.6789 38.008 63.5229 38.008V40.008ZM65.2766 40.5588C65.6847 40.8832 65.8349 41.2208 65.8349 41.624H67.8349C67.8349 40.5552 67.3611 39.6608 66.5211 38.9932L65.2766 40.5588ZM65.8349 41.624V49.736H67.8349V41.624H65.8349ZM66.8349 48.736H64.1949V50.736H66.8349V48.736ZM56.1709 50.096V49.496H54.1709V50.096H56.1709ZM55.1709 50.496H61.2669V48.496H55.1709V50.496ZM60.2669 49.496V50.096H62.2669V49.496H60.2669ZM61.2669 49.096H55.1709V51.096H61.2669V49.096ZM63.3709 50.096V49.496H61.3709V50.096H63.3709ZM62.3709 50.496H68.4669V48.496H62.3709V50.496ZM67.4669 49.496V50.096H69.4669V49.496H67.4669ZM68.4669 49.096H62.3709V51.096H68.4669V49.096ZM58.0669 49.736V32.384H56.0669V49.736H58.0669ZM57.0669 33.384H59.7069V31.384H57.0669V33.384ZM58.7069 32.384V49.736H60.7069V32.384H58.7069ZM59.7069 48.736H57.0669V50.736H59.7069V48.736ZM56.1709 32.6V32H54.1709V32.6H56.1709ZM55.1709 33H59.7069V31H55.1709V33ZM58.7069 32V32.6H60.7069V32H58.7069ZM59.7069 31.6H55.1709V33.6H59.7069V31.6ZM72.7238 49.736V39.896H70.7238V49.736H72.7238ZM71.7238 40.896H74.3638V38.896H71.7238V40.896ZM73.3638 39.896V49.736H75.3638V39.896H73.3638ZM74.3638 48.736H71.7238V50.736H74.3638V48.736ZM70.8278 50.096V49.496H68.8278V50.096H70.8278ZM69.8278 50.496H76.2837V48.496H69.8278V50.496ZM75.2837 49.496V50.096H77.2837V49.496H75.2837ZM76.2837 49.096H69.8278V51.096H76.2837V49.096ZM70.5877 40.112V39.512H68.5877V40.112H70.5877ZM69.5877 40.512H74.3638V38.512H69.5877V40.512ZM73.3638 39.512V40.112H75.3638V39.512H73.3638ZM74.3638 39.112H69.5877V41.112H74.3638V39.112ZM72.9958 34.744C72.8262 34.744 72.6951 34.6947 72.5565 34.563L71.179 36.013C71.6804 36.4893 72.3013 36.744 72.9958 36.744V34.744ZM72.5927 34.5992C72.461 34.4606 72.4118 34.3295 72.4118 34.16H70.4118C70.4118 34.8545 70.6665 35.4754 71.1427 35.9767L72.5927 34.5992ZM72.4118 34.16C72.4118 33.9918 72.4594 33.8785 72.5749 33.7631L71.1606 32.3489C70.6681 32.8415 70.4118 33.4642 70.4118 34.16H72.4118ZM72.5749 33.7631C72.7173 33.6207 72.8427 33.576 72.9958 33.576V31.576C72.2848 31.576 71.6582 31.8513 71.1606 32.3489L72.5749 33.7631ZM72.9958 33.576C73.147 33.576 73.2549 33.6186 73.3748 33.7447L74.8247 32.3672C74.3366 31.8534 73.7085 31.576 72.9958 31.576V33.576ZM73.411 33.781C73.5371 33.9008 73.5798 34.0088 73.5798 34.16H75.5798C75.5798 33.4472 75.3024 32.8192 74.7885 32.331L73.411 33.781ZM73.5798 34.16C73.5798 34.3131 73.535 34.4385 73.3926 34.5809L74.8069 35.9951C75.3045 35.4975 75.5798 34.8709 75.5798 34.16H73.5798ZM73.3926 34.5809C73.2772 34.6963 73.164 34.744 72.9958 34.744V36.744C73.6915 36.744 74.3143 36.4877 74.8069 35.9951L73.3926 34.5809ZM87.4616 49.736V41.624H85.4616V49.736H87.4616ZM87.4616 41.624C87.4616 40.9172 87.3246 40.202 86.8825 39.6493C86.4063 39.054 85.7223 38.824 85.0216 38.824V40.824C85.2809 40.824 85.317 40.894 85.3208 40.8987C85.3586 40.946 85.4616 41.1308 85.4616 41.624H87.4616ZM85.0216 38.824C84.1891 38.824 83.4622 39.1748 82.8635 39.7522L84.2518 41.1918C84.549 40.9052 84.7982 40.824 85.0216 40.824V38.824ZM82.8505 39.7649C82.2879 40.3275 81.8684 41.0587 81.5612 41.9079L83.442 42.5881C83.6789 41.9333 83.9633 41.4805 84.2647 41.1791L82.8505 39.7649ZM81.5571 41.9195C81.2576 42.7808 81.1176 43.735 81.1176 44.768H83.1176C83.1176 43.913 83.2337 43.1872 83.4461 42.5765L81.5571 41.9195ZM83.1082 44.6314L82.6283 41.1514L80.647 41.4246L81.127 44.9046L83.1082 44.6314ZM81.6376 42.288H82.2136V40.288H81.6376V42.288ZM83.1037 41.7439C83.3721 41.2198 83.7301 40.7946 84.1816 40.456L82.9816 38.856C82.2811 39.3814 81.7272 40.0442 81.3236 40.8321L83.1037 41.7439ZM84.1711 40.4638C84.5511 40.1865 85.0887 40.008 85.8616 40.008V38.008C84.7786 38.008 83.7961 38.2615 82.9922 38.8482L84.1711 40.4638ZM85.8616 40.008C86.6162 40.008 87.1503 40.2081 87.5455 40.5409L88.8338 39.0111C88.013 38.3199 86.995 38.008 85.8616 38.008V40.008ZM87.5575 40.5509C87.9503 40.8713 88.1016 41.2105 88.1016 41.624H90.1016C90.1016 40.5655 89.6449 39.6727 88.8218 39.0011L87.5575 40.5509ZM88.1016 41.624V49.736H90.1016V41.624H88.1016ZM89.1016 48.736H86.4616V50.736H89.1016V48.736ZM78.5816 50.096V49.496H76.5816V50.096H78.5816ZM77.5816 50.496H83.6776V48.496H77.5816V50.496ZM82.6776 49.496V50.096H84.6776V49.496H82.6776ZM83.6776 49.096H77.5816V51.096H83.6776V49.096ZM80.4776 49.736V39.68H78.4776V49.736H80.4776ZM79.4776 40.68H82.1176V38.68H79.4776V40.68ZM81.1176 39.68V49.736H83.1176V39.68H81.1176ZM82.1176 48.736H79.4776V50.736H82.1176V48.736ZM85.6376 50.096V49.496H83.6376V50.096H85.6376ZM84.6376 50.496H90.7336V48.496H84.6376V50.496ZM89.7336 49.496V50.096H91.7336V49.496H89.7336ZM90.7336 49.096H84.6376V51.096H90.7336V49.096ZM78.5816 39.896V39.296H76.5816V39.896H78.5816ZM77.5816 40.296H82.1176V38.296H77.5816V40.296ZM81.1176 39.296V39.896H83.1176V39.296H81.1176ZM82.1176 38.896H77.5816V40.896H82.1176V38.896ZM101.266 49.1306L96.9944 43.5146L95.4026 44.7254L99.6746 50.3414L101.266 49.1306ZM96.7252 44.9701L98.9332 43.6021L97.8798 41.9019L95.6718 43.2699L96.7252 44.9701ZM97.6207 43.3704L103.117 50.3544L104.688 49.1176L99.1924 42.1336L97.6207 43.3704ZM103.903 48.736H100.47V50.736H103.903V48.736ZM92.4945 50.096V49.496H90.4945V50.096H92.4945ZM91.4945 50.496H97.3505V48.496H91.4945V50.496ZM96.3505 49.496V50.096H98.3505V49.496H96.3505ZM97.3505 49.096H91.4945V51.096H97.3505V49.096ZM99.8385 50.096V49.496H97.8385V50.096H99.8385ZM98.8385 50.496H104.743V48.496H98.8385V50.496ZM103.743 49.496V50.096H105.743V49.496H103.743ZM104.743 49.096H98.8385V51.096H104.743V49.096ZM94.3905 49.736V32.384H92.3905V49.736H94.3905ZM93.3905 33.384H96.0305V31.384H93.3905V33.384ZM95.0305 32.384V49.736H97.0305V32.384H95.0305ZM96.0305 48.736H93.3905V50.736H96.0305V48.736ZM97.2305 43.12H96.1985V45.12H97.2305V43.12ZM96.9075 44.8252L101.3 40.4092L99.8815 38.9988L95.4895 43.4148L96.9075 44.8252ZM100.59 40.704H101.622V38.704H100.59V40.704ZM100.913 38.9988L96.5215 43.4148L97.9395 44.8252L102.332 40.4092L100.913 38.9988ZM92.4945 32.6V32H90.4945V32.6H92.4945ZM91.4945 33H96.0305V31H91.4945V33ZM95.0305 32V32.6H97.0305V32H95.0305ZM96.0305 31.6H91.4945V33.6H96.0305V31.6ZM99.0465 39.896V39.296H97.0465V39.896H99.0465ZM98.0465 40.296H103.615V38.296H98.0465V40.296ZM102.615 39.296V39.896H104.615V39.296H102.615ZM103.615 38.896H98.0465V40.896H103.615V38.896ZM108.431 49.384C107.77 49.384 107.321 49.2005 106.993 48.901L105.645 50.379C106.405 51.0715 107.364 51.384 108.431 51.384V49.384ZM106.993 48.901C106.676 48.6122 106.503 48.242 106.503 47.696H104.503C104.503 48.75 104.874 49.6758 105.645 50.379L106.993 48.901ZM106.503 47.696C106.503 47.1748 106.667 46.7662 106.999 46.4134L105.543 45.0426C104.851 45.7778 104.503 46.6812 104.503 47.696H106.503ZM106.989 46.4245C107.366 46.036 107.943 45.6921 108.79 45.4378L108.216 43.5222C107.143 43.8439 106.232 44.332 105.553 45.0315L106.989 46.4245ZM108.805 45.4333C109.643 45.168 110.672 45.024 111.911 45.024V43.024C110.526 43.024 109.283 43.184 108.201 43.5267L108.805 45.4333ZM112.911 44.024V41.096H110.911V44.024H112.911ZM112.911 41.096C112.911 40.38 112.614 39.7495 112.031 39.312L110.831 40.912C110.877 40.9462 110.888 40.9682 110.892 40.9764C110.897 40.9859 110.911 41.0186 110.911 41.096H112.911ZM112.031 39.312C111.481 38.8993 110.803 38.752 110.111 38.752V40.752C110.539 40.752 110.741 40.8447 110.831 40.912L112.031 39.312ZM110.111 38.752C109.53 38.752 108.962 38.8475 108.469 39.1071L109.401 40.8769C109.516 40.8165 109.732 40.752 110.111 40.752V38.752ZM108.469 39.1071C107.967 39.3717 107.479 39.8619 107.479 40.616H109.479C109.479 40.6526 109.473 40.697 109.458 40.7443C109.442 40.7915 109.421 40.8299 109.4 40.858C109.362 40.911 109.341 40.9085 109.401 40.8769L108.469 39.1071ZM107.479 40.616C107.479 41.0343 107.634 41.4087 107.894 41.7065L109.4 40.3895C109.412 40.4042 109.435 40.4348 109.453 40.4816C109.472 40.5292 109.479 40.5765 109.479 40.616H107.479ZM107.894 41.7065C107.833 41.6361 107.814 41.5761 107.81 41.5636C107.807 41.5536 107.815 41.5767 107.815 41.648H109.815C109.815 41.2708 109.743 40.7817 109.4 40.3895L107.894 41.7065ZM107.815 41.648C107.815 41.6683 107.813 41.6803 107.812 41.6861C107.811 41.6915 107.81 41.6937 107.81 41.6942C107.809 41.6948 107.808 41.6977 107.804 41.7035C107.799 41.7094 107.79 41.7203 107.772 41.7354L109.09 43.2406C109.559 42.8294 109.815 42.2764 109.815 41.648H107.815ZM107.776 41.7323C107.754 41.7514 107.691 41.8 107.495 41.8V43.8C108.067 43.8 108.628 43.6406 109.086 43.2437L107.776 41.7323ZM107.495 41.8C107.4 41.8 107.348 41.7861 107.325 41.7777C107.305 41.7705 107.297 41.7642 107.29 41.7569L105.876 43.1711C106.326 43.6212 106.906 43.8 107.495 43.8V41.8ZM107.314 41.7817C107.276 41.741 107.247 41.6947 107.247 41.576H105.247C105.247 42.1613 105.442 42.707 105.852 43.1463L107.314 41.7817ZM107.247 41.576C107.247 41.3969 107.307 41.2104 107.53 40.9871L106.116 39.5729C105.571 40.1176 105.247 40.7951 105.247 41.576H107.247ZM107.544 40.9725C107.794 40.713 108.164 40.4754 108.706 40.2903L108.06 38.3976C107.29 38.6606 106.62 39.047 106.102 39.5875L107.544 40.9725ZM108.706 40.2903C109.242 40.1075 109.866 40.008 110.591 40.008V38.008C109.684 38.008 108.836 38.1325 108.06 38.3977L108.706 40.2903ZM110.591 40.008C111.633 40.008 112.383 40.2155 112.914 40.5499L113.98 38.8581C113.039 38.2645 111.885 38.008 110.591 38.008V40.008ZM112.927 40.5582C113.425 40.8612 113.551 41.1579 113.551 41.48H115.551C115.551 40.3301 114.941 39.4428 113.967 38.8498L112.927 40.5582ZM113.551 41.48V48.776H115.551V41.48H113.551ZM113.551 48.776C113.551 49.1529 113.671 49.5257 113.936 49.8348L115.454 48.5332C115.485 48.5688 115.512 48.6141 115.53 48.6652C115.548 48.7151 115.551 48.755 115.551 48.776H113.551ZM114.044 49.9433C114.333 50.1905 114.69 50.328 115.079 50.328V48.328C115.12 48.328 115.172 48.3354 115.226 48.3557C115.28 48.3759 115.32 48.4027 115.346 48.4247L114.044 49.9433ZM115.079 50.328C115.542 50.328 115.923 50.107 116.183 49.912L114.983 48.312C114.932 48.3502 114.911 48.3582 114.919 48.3549C114.927 48.3513 114.984 48.328 115.079 48.328V50.328ZM116.223 49.8802C116.469 49.6755 116.746 49.395 117.046 49.061L115.56 47.723C115.284 48.029 115.081 48.2285 114.943 48.3438L116.223 49.8802ZM115.55 49.0505L115.886 49.4345L117.392 48.1175L117.056 47.7335L115.55 49.0505ZM115.82 48.2017C115.173 49.1248 114.6 49.384 114.119 49.384V51.384C115.494 51.384 116.601 50.5712 117.458 49.3503L115.82 48.2017ZM114.119 49.384C113.749 49.384 113.523 49.2882 113.364 49.157L112.09 50.699C112.667 51.1758 113.369 51.384 114.119 51.384V49.384ZM113.4 49.1881C113.228 49.0319 113.074 48.7881 112.982 48.3852L111.032 48.8308C111.196 49.5479 111.522 50.1841 112.054 50.6679L113.4 49.1881ZM112.007 47.608H111.911V49.608H112.007V47.608ZM111.051 48.0975C110.864 48.4128 110.543 48.7195 110.015 48.99L110.927 50.77C111.711 50.3685 112.35 49.8272 112.771 49.1185L111.051 48.0975ZM110.015 48.99C109.493 49.2572 108.969 49.384 108.431 49.384V51.384C109.301 51.384 110.137 51.1748 110.927 50.77L110.015 48.99ZM109.871 50.064C110.761 50.064 111.539 49.7186 112.108 49.0267L110.562 47.7573C110.395 47.9614 110.197 48.064 109.871 48.064V50.064ZM112.105 49.0296C112.669 48.349 112.911 47.5073 112.911 46.592H110.911C110.911 47.1487 110.769 47.507 110.565 47.7544L112.105 49.0296ZM112.911 46.592V44.648H110.911V46.592H112.911ZM111.911 43.648C110.614 43.648 109.46 43.8853 108.606 44.5149L109.792 46.1251C110.154 45.8587 110.808 45.648 111.911 45.648V43.648ZM108.62 44.5048C107.709 45.1522 107.287 46.1194 107.287 47.24H109.287C109.287 46.6646 109.473 46.3518 109.778 46.1352L108.62 44.5048ZM107.287 47.24C107.287 47.9652 107.459 48.6735 107.933 49.2316L109.457 47.9364C109.387 47.8545 109.287 47.6668 109.287 47.24H107.287ZM107.952 49.253C108.459 49.8166 109.139 50.064 109.871 50.064V48.064C109.611 48.064 109.507 47.9914 109.438 47.915L107.952 49.253Z" fill="url(#paint2_diamond_185_234)" mask="url(#path-3-outside-1_185_234)"/>
</g>
<defs>
<filter id="filter0_d_185_234" x="8" y="26" width="114.908" height="30.384" filterUnits="userSpaceOnUse" color-interpolation-filters="sRGB">
<feFlood flood-opacity="0" result="BackgroundImageFix"/>
<feColorMatrix in="SourceAlpha" type="matrix" values="0 0 0 0 0 0 0 0 0 0 0 0 0 0 0 0 0 0 127 0" result="hardAlpha"/>
<feOffset/>
<feGaussianBlur stdDeviation="2.5"/>
<feColorMatrix type="matrix" values="0 0 0 0 0.501961 0 0 0 0 0 0 0 0 0 0.952941 0 0 0 1 0"/>
<feBlend mode="normal" in2="BackgroundImageFix" result="effect1_dropShadow_185_234"/>
<feBlend mode="normal" in="SourceGraphic" in2="effect1_dropShadow_185_234" result="shape"/>
</filter>
<linearGradient id="paint0_linear_185_234" x1="131.525" y1="58.9749" x2="58.2391" y2="16.663" gradientUnits="userSpaceOnUse">
<stop stop-color="#8000F3"/>
<stop offset="1" stop-color="#8000F3" stop-opacity="0"/>
</linearGradient>
<linearGradient id="paint1_linear_185_234" x1="0.169246" y1="18.7209" x2="67.6844" y2="69.7393" gradientUnits="userSpaceOnUse">
<stop stop-color="#8000F3"/>
<stop offset="1" stop-color="#8000F3" stop-opacity="0"/>
</linearGradient>
<radialGradient id="paint2_diamond_185_234" cx="0" cy="0" r="1" gradientUnits="userSpaceOnUse" gradientTransform="translate(65.4019 43.096) rotate(90) scale(15 55)">
<stop stop-color="#8000F3"/>
<stop offset="1" stop-color="#8000F3"/>
</radialGradient>
</defs>
</svg>
