<svg width="15" height="12" viewBox="0 0 15 12" fill="none" xmlns="http://www.w3.org/2000/svg">
<path d="M9.328 11.208C8.816 10.856 8.448 10.488 8.224 10.104C8.032 9.72 8 9.32 8.128 8.904C8.224 8.168 8.384 7.48 8.608 6.84C8.864 6.2 9.088 5.576 9.28 4.968C9.472 4.232 9.792 3.56 10.24 2.952C10.688 2.344 11.184 1.736 11.728 1.128C11.696 0.999998 11.792 0.919998 12.016 0.887999C12.24 0.855999 12.528 0.775999 12.88 0.647999C13.232 0.615999 13.44 0.615999 13.504 0.647999C13.6 0.679998 13.76 0.791998 13.984 0.983997C14.048 1.208 14.016 1.416 13.888 1.608C13.792 1.768 13.664 1.976 13.504 2.232C13.12 2.84 12.672 3.592 12.16 4.488C11.68 5.384 11.36 6.072 11.2 6.552C11.2 6.68 11.184 6.792 11.152 6.888C11.696 6.792 12.256 6.984 12.832 7.464C13.44 8.04 13.632 8.632 13.408 9.24C13.216 9.816 12.704 10.392 11.872 10.968C11.296 11.32 10.864 11.512 10.576 11.544C10.32 11.544 9.904 11.432 9.328 11.208ZM2.128 11.208C1.616 10.856 1.248 10.488 1.024 10.104C0.832 9.72 0.8 9.32 0.928 8.904C1.024 8.168 1.184 7.48 1.408 6.84C1.664 6.2 1.888 5.576 2.08 4.968C2.272 4.232 2.592 3.56 3.04 2.952C3.488 2.344 3.984 1.736 4.528 1.128C4.496 0.999998 4.592 0.919998 4.816 0.887999C5.04 0.855999 5.328 0.775999 5.68 0.647999C6.032 0.615999 6.24 0.615999 6.304 0.647999C6.4 0.679998 6.56 0.791998 6.784 0.983997C6.848 1.208 6.816 1.416 6.688 1.608C6.592 1.768 6.464 1.976 6.304 2.232C5.92 2.84 5.472 3.592 4.96 4.488C4.48 5.384 4.16 6.072 4 6.552C4 6.68 3.984 6.792 3.952 6.888C4.496 6.792 5.056 6.984 5.632 7.464C6.24 8.04 6.432 8.632 6.208 9.24C6.016 9.816 5.504 10.392 4.672 10.968C4.096 11.32 3.664 11.512 3.376 11.544C3.12 11.544 2.704 11.432 2.128 11.208Z" fill="#F2C995"/>
</svg>
