<svg width="96" height="99" viewBox="0 0 96 99" fill="none" xmlns="http://www.w3.org/2000/svg">
<path d="M84.393 0.777174C83.6769 1.16074 77.1667 6.58257 75.3489 14.1167C73.5318 21.6494 74.2722 28.6916 72.0144 30.9824C69.7552 33.2717 69.8539 37.228 69.1486 40.2278C68.441 43.2278 66.2086 42.8812 65.5671 41.7191C64.9245 40.5568 63.0231 41.3986 62.5201 44.596C62.0156 47.7955 60.8428 58.4757 48.2837 61.3749C27.1423 66.2555 24.6821 63.9039 24.3965 63.3837C24.1063 62.8634 25.006 62.4748 24.5686 61.9386C24.1343 61.4014 23.3966 62.8501 22.1043 63.0164C16.996 63.675 2.01238 54.9416 1.07539 54.3386C0.136797 53.7341 -1.11803 54.8209 3.28237 56.738C7.68029 58.6548 2.92766 61.1308 6.78685 65.0898C10.6461 69.0517 18.2564 72.915 22.0462 72.4742C25.8374 72.0313 25.1139 75.4192 22.4934 74.8765C19.8758 74.3356 19.4261 75.7868 21.3793 78.3966C23.3318 81.0047 18.596 81.1654 16.3407 80.7762C14.1742 80.4014 15.0898 83.039 16.6431 82.412C18.1974 81.7854 22.4793 81.3113 22.4937 83.0146C22.5092 84.7183 26.6335 83.5371 31.8968 87.0169C37.1586 90.4948 42.2555 93.5909 44.9413 94.8429C47.6277 96.0925 48.817 98.5794 51.4824 98.4482C54.1481 98.3213 55.0144 96.4539 52.6261 96.4118C50.2396 96.3718 43.879 94.2598 37.3743 89.8799C30.8719 85.499 29.3527 80.4857 33.1637 81.4247C36.9746 82.361 47.1862 85.8164 47.615 88.0167C48.043 90.2176 53.2046 91.0795 58.4213 90.785C63.6385 90.4893 62.7112 88.6466 63.6338 87.5478C64.5575 86.4487 67.8868 86.9327 69.1003 86.1918C70.3125 85.4506 69.0257 83.8811 68.5202 84.7247C68.0133 85.5691 66.6495 87.0456 63.1022 85.4123C59.5554 83.7772 57.5636 83.8654 57.2813 84.3622C56.9973 84.8559 58.9659 85.9025 57.0822 86.5181C55.1971 87.1342 47.7901 86.5709 39.5769 82.5381C36.9725 81.2621 36.0784 79.4833 37.8082 79.9275C40.2715 80.5567 48.4691 83.1044 51.8042 83.2642C55.1386 83.4217 54.2171 80.6656 55.8432 80.4216C57.471 80.1775 63.7893 79.6912 70.0183 75.9419C76.2465 72.1914 76.4575 68.0471 78.8168 64.6784C81.1757 61.3112 83.8903 63.4531 86.5564 63.9115C89.2224 64.3723 88.6107 62.176 89.8663 61.678C91.1207 61.1793 91.2673 60.0186 89.4262 60.1259C87.5848 60.2342 85.716 62.3921 83.5641 59.4229C81.4133 56.4543 86.8598 50.4509 88.9611 49.2219C91.0651 47.9919 89.2941 47.3047 89.138 43.3328C88.9815 39.3597 93.2519 37.0168 92.3275 34.4228C91.8057 32.9548 92.9128 29.943 94.5291 27.8323C96.1433 25.7219 94.8772 24.3555 94.0418 25.0244C93.2074 25.6967 94.222 26.5235 93.2149 27.1363C92.2092 27.7492 92.9703 28.0365 90.7339 32.8802C88.4961 37.7274 85.5164 37.6212 84.6501 36.8114C83.785 36.0003 82.073 39.0266 79.9993 39.9736C77.9245 40.9182 78.3987 36.8282 80.9647 33.3332C83.5312 29.8383 82.5271 29.1141 82.8571 27.3593C83.1857 25.6074 85.7344 23.6738 84.9851 21.5615C84.2346 19.4508 82.5078 22.7014 80.3868 19.2847C78.2656 15.8691 80.1086 13.2453 79.7219 12.4643C79.3372 11.6826 78.9958 12.1568 78.4033 12.0905C77.8109 12.0249 77.5865 9.86035 80.0679 6.62989C82.5499 3.40244 84.3576 2.7276 85.296 1.99426C86.2355 1.25898 85.1077 0.393832 84.393 0.777174ZM28.4208 74.5233C26.9891 74.701 25.6933 74.9551 25.3037 73.7489C24.9148 72.5407 26.6451 71.6459 28.5034 72.491C30.3636 73.3345 29.8535 74.3434 28.4208 74.5233ZM70.6063 65.6772C71.8015 66.4979 68.0939 69.9417 67.0232 68.5073C65.9527 67.073 69.4099 64.8552 70.6063 65.6772ZM74.3152 71.5497C71.7021 74.5359 66.5858 77.4462 65.7762 75.4784C64.9671 73.5117 65.2857 72.6458 66.8554 70.8034C68.093 69.3521 69.9576 68.6954 71.1177 67.0232C72.1486 65.5411 74.3907 63.0422 75.5604 64.1507C76.7269 65.2559 76.93 68.5594 74.3152 71.5497Z" fill="url(#paint0_linear_220_592)" fill-opacity="0.5"/>
<defs>
<linearGradient id="paint0_linear_220_592" x1="92.9435" y1="7.95915" x2="19.7323" y2="86.2423" gradientUnits="userSpaceOnUse">
<stop stop-color="#8000F3"/>
<stop offset="1" stop-color="#8000F3" stop-opacity="0"/>
</linearGradient>
</defs>
</svg>
