<svg width="84" height="73" viewBox="0 0 84 73" fill="none" xmlns="http://www.w3.org/2000/svg">
<path d="M42.4228 12.8965C42.2313 11.9425 40.9116 12.263 40.2946 12.5446C37.4628 13.8412 34.7499 11.5804 35.3349 10.4593C35.9209 9.33567 32.2895 7.00415 31.6243 4.43403C30.9603 1.86622 29.8464 0.299426 29.1408 1.26693C28.4363 2.23603 30.6276 4.6974 29.6598 5.08907C28.6927 5.47982 28.0502 6.70728 29.2461 7.25962C30.4447 7.8149 29.9073 8.29269 33.0479 11.1376C36.1895 13.9821 39.8592 13.9529 40.7722 13.8434C41.6868 13.7364 42.6131 13.8511 42.4228 12.8965ZM19.8057 37.1833C19.8825 35.9896 18.4454 36.8028 18.6982 37.3346C18.9499 37.8677 19.7272 38.3771 19.8057 37.1833ZM20.2704 42.8206C19.7139 43.0563 20.3592 44.0082 20.7461 43.5855C21.1326 43.1609 20.8259 42.586 20.2704 42.8206ZM23.5215 38.8622C22.7334 37.6328 20.3672 37.6501 20.8273 39.541C21.285 41.4325 24.3107 40.0939 23.5215 38.8622ZM61.2975 8.64639C60.9644 8.78577 61.3497 9.35764 61.5835 9.10563C61.8141 8.85076 61.6299 8.50616 61.2975 8.64639ZM17.5398 39.6238C15.6833 41.0676 11.9058 41.6643 9.71878 39.3808C7.52922 37.0982 7.1599 38.9435 6.41217 37.2052C5.66285 35.4692 3.70169 32.7738 3.0013 34.6003C2.30093 36.4268 4.75283 36.9338 3.41618 39.1712C2.08053 41.4088 4.60087 43.7102 6.28102 44.7447C7.9616 45.7825 11.8624 43.8464 12.8501 44.0371C13.8374 44.2307 13.8177 42.9678 15.6273 42.3483C17.4368 41.7268 17.2554 41.3149 17.9969 40.8355C18.7385 40.3589 18.1627 39.1373 17.5398 39.6238ZM63.2652 10.8834C62.8455 10.5898 62.6656 11.4445 63.1387 11.5436C63.6132 11.6458 63.6833 11.1761 63.2652 10.8834ZM67.2095 8.37307C66.5807 7.96544 64.9392 7.60026 65.186 8.70102C65.4332 9.8004 66.4548 8.96495 67.1138 9.0717C67.7728 9.1774 67.8406 8.77915 67.2095 8.37307ZM65.2823 17.6837C64.5729 17.1155 64.2872 18.4651 65.1233 18.7141C65.961 18.9616 65.9933 18.2533 65.2823 17.6837ZM74.1015 14.8788C73.6745 13.6368 72.5014 12.9199 71.9561 13.7875C71.4109 14.6503 72.1503 15.598 72.8935 16.0477C73.6352 16.4983 74.5248 16.1237 74.1015 14.8788ZM64.6562 56.0097C64.2764 57.1341 66.2821 57.1498 66.2697 56.4259C66.2579 55.7049 65.0388 54.8858 64.6562 56.0097ZM63.9876 44.5971C64.2195 44.3442 64.0361 43.9997 63.7028 44.1385C63.3709 44.2804 63.7547 44.8492 63.9876 44.5971ZM62.4183 41.5672C62.6233 42.9217 65.1275 42.9652 66.0278 42.1364C66.9298 41.3067 65.2236 40.5018 64.3777 40.5488C63.532 40.5999 62.2095 40.2081 62.4183 41.5672ZM75.0324 25.198C79.4496 27.5827 80.3697 29.6904 80.9513 31.2378C81.5316 32.7859 82.9682 32.6531 83.4056 31.9271C83.8415 31.198 83.5001 30.0443 82.6524 29.3275C80.9044 27.8538 73.1827 21.6185 58.8569 19.4912C44.5321 17.3627 39.9679 21.8733 37.288 20.8411C35.0356 19.9754 36.0679 18.8467 34.567 18.721C33.0659 18.5942 33.7951 21.6025 35.0126 22.2432C36.2306 22.8827 36.2687 24.0507 32.5243 26.1333C28.7817 28.2153 27.6502 31.6293 26.3716 34.441C25.0942 37.2533 23.9966 36.769 24.1684 37.8181C24.3412 38.8666 25.6898 38.0291 25.0481 40.4321C24.4058 42.8326 27.7716 43.9208 24.5148 45.9779C23.3099 46.7373 24.5538 49.0008 25.638 47.4072C26.7218 45.8118 29.0902 42.4464 30.0791 43.3184C31.0672 44.1867 33.1408 42.4698 34.4262 37.6642C35.7119 32.859 48.1778 29.6907 47.8713 31.1156C47.563 32.5399 51.271 30.6463 53.7861 30.9124C56.3017 31.1793 58.5206 29.8829 57.4608 28.213C56.4032 26.5429 58.3034 24.951 61.1835 26.043C64.0635 27.1353 64.7954 25.4363 64.4193 23.8922C64.0437 22.3419 70.6128 22.8124 75.0324 25.198ZM73.5068 45.5071C74.2141 46.573 75.5171 45.8823 75.3224 44.9985C75.1271 44.1124 74.4838 43.3928 73.8536 43.5755C73.2244 43.7591 72.7961 44.4402 73.5068 45.5071ZM25.3825 50.9012C26.1687 51.9505 29.842 49.7479 29.5355 47.6439C29.2283 45.5382 27.4317 46.3826 26.3728 47.7445C25.3139 49.1057 24.5958 49.8497 25.3825 50.9012ZM75.8968 38.6962C77.0588 38.8506 77.3491 37.8588 76.2017 37.3396C75.0552 36.8194 74.7367 38.5418 75.8968 38.6962ZM63.5074 39.6549C65.0258 39.6842 66.77 40.3009 68.1774 37.6851C69.586 35.0717 71.5565 35.9547 72.186 37.0376C72.8165 38.122 73.6908 36.6654 72.5009 35.9746C71.3115 35.2829 66.8223 33.4567 63.5436 34.7582C60.2661 36.0616 60.7833 37.35 61.8255 37.4412C62.8678 37.5286 61.9874 39.6228 63.5074 39.6549ZM49.4427 58.4637C49.3412 60.5683 52.2289 61.5222 53.3077 60.2467C54.3878 58.9703 52.2214 56.952 55.9022 55.7893C59.5841 54.6261 59.6196 56.2917 61.0065 56.623C62.395 56.9543 61.9685 54.6937 60.8442 54.9382C59.719 55.1849 58.5228 54.6307 55.4233 54.4908C52.3261 54.3514 49.5443 56.3605 49.4427 58.4637ZM59.2749 39.2174C59.5019 40.6613 61.5115 39.6808 61.1086 38.865C60.7064 38.0461 59.0473 37.7748 59.2749 39.2174ZM1.21597 58.3811C2.98327 56.5031 7.22989 55.8943 10.1428 56.6177C13.057 57.3412 13.3408 55.6497 13.0494 55.1251C12.7591 54.6001 13.1545 54.2341 14.1019 54.5792C19.3009 56.479 27.7204 51.0829 31.9553 42.8205C37.3342 32.3288 46.4446 34.4109 52.9234 35.353C54.2941 35.5517 54.7521 36.1543 54.0074 36.6998C53.2613 37.2482 52.7751 35.748 51.1678 35.7802C49.5624 35.814 47.8604 36.2079 47.8697 37.3368C47.8796 38.4669 49.5385 38.2385 50.2762 38.3286C51.0107 38.4155 51.2552 39.3351 49.723 39.6695C48.1903 40.0039 41.8299 41.5708 37.9093 48.3071C33.9883 55.043 32.1048 59.0727 32.5287 59.9753C32.9515 60.8798 31.769 61.7256 31.2816 61.0627C30.7939 60.3999 29.0743 61.2264 27.9803 63.9545C26.8832 66.6805 23.0508 67.3809 21.9936 70.0983C20.9383 72.8173 19.4478 72.735 19.2201 71.9696C18.9951 71.2045 20.0877 70.8312 19.448 70.382C18.8096 69.9335 17.1148 70.5285 16.0241 71.0831C14.9327 71.637 15.2741 69.3465 11.9479 70.1154C8.62155 70.8852 7.27389 69.369 5.81187 65.706C4.35054 62.0428 2.04821 61.0988 1.13219 61.0698C0.32624 61.0441 -0.232555 59.9221 1.21597 58.3811ZM13.8204 62.5128C14.2404 63.7337 14.9342 63.8995 15.6052 63.799C16.274 63.6984 17.1074 62.9276 15.9262 62.0997C14.7454 61.2714 13.4015 61.2924 13.8204 62.5128ZM5.77384 64.5365C8.43839 69.1158 12.7219 67.4141 12.8959 64.9322C13.1397 61.4603 8.03223 59.7022 6.04385 60.09C4.05228 60.4786 4.0296 61.5394 5.77384 64.5365Z" fill="url(#paint0_linear_391_104)" fill-opacity="0.5"/>
<defs>
<linearGradient id="paint0_linear_391_104" x1="13.5463" y1="20.6197" x2="64.6823" y2="59.4761" gradientUnits="userSpaceOnUse">
<stop stop-color="#8000F3"/>
<stop offset="1" stop-color="#8000F3" stop-opacity="0"/>
</linearGradient>
</defs>
</svg>
