<svg width="20" height="21" viewBox="0 0 20 21" fill="none" xmlns="http://www.w3.org/2000/svg">
<path d="M17.0016 3.22934C15.1342 1.35241 12.6443 0.321289 9.99285 0.321289C4.53313 0.321289 0.0855308 4.7689 0.0807791 10.2286C0.0807791 11.9773 0.536944 13.6784 1.40176 15.1847L0 20.3213L5.25539 18.9433C6.70467 19.7321 8.33451 20.1502 9.99285 20.1502H9.99761C15.4573 20.1502 19.9049 15.7026 19.9097 10.2381C19.9049 7.59142 18.8738 5.10152 17.0016 3.22934ZM9.99285 18.4729C8.51032 18.4729 7.06105 18.0737 5.79709 17.323L5.49773 17.1424L2.38061 17.9597L3.21216 14.9186L3.01734 14.605C2.19054 13.2935 1.75813 11.7777 1.75813 10.2239C1.75813 5.69074 5.45497 1.9939 9.99761 1.9939C12.1976 1.9939 14.2646 2.85396 15.8232 4.40777C17.377 5.96634 18.2323 8.03334 18.2323 10.2334C18.2276 14.7808 14.5307 18.4729 9.99285 18.4729ZM14.5117 12.3051C14.2646 12.1816 13.0482 11.5829 12.8201 11.4973C12.592 11.4166 12.4257 11.3738 12.2642 11.6209C12.0979 11.868 11.6227 12.4287 11.4801 12.5902C11.3376 12.7565 11.1903 12.7756 10.9432 12.652C10.6961 12.5285 9.89782 12.2671 8.95223 11.4213C8.21571 10.7656 7.72153 9.95303 7.57423 9.70594C7.43168 9.45885 7.55998 9.3258 7.68352 9.20226C7.79281 9.09297 7.93061 8.9124 8.05415 8.76985C8.1777 8.6273 8.22046 8.52276 8.30124 8.35645C8.38202 8.19014 8.34401 8.04759 8.28224 7.92405C8.22046 7.8005 7.72629 6.57931 7.51721 6.08513C7.31764 5.60045 7.11332 5.66698 6.96126 5.66223C6.81871 5.65272 6.6524 5.65272 6.48609 5.65272C6.31978 5.65272 6.05368 5.71449 5.8256 5.96158C5.59752 6.20867 4.96079 6.80739 4.96079 8.02858C4.96079 9.24978 5.84936 10.4235 5.9729 10.5898C6.09645 10.7561 7.71678 13.2555 10.2019 14.3294C10.7911 14.586 11.2521 14.738 11.6132 14.8521C12.2072 15.0421 12.7441 15.0136 13.1718 14.9518C13.6469 14.8806 14.6353 14.3531 14.8444 13.7734C15.0487 13.1937 15.0487 12.6995 14.9869 12.595C14.9251 12.4904 14.7588 12.4287 14.5117 12.3051Z" fill="#F2C995"/>
</svg>
